<svg width="21" height="18" viewBox="0 0 21 18" fill="none" xmlns="http://www.w3.org/2000/svg"><g clip-path="url(#clip0_644_8945)"><path d="M0.17874 10.0318H3.26476C3.28844 10.0318 3.31188 10.0371 3.33372 10.0474C3.35556 10.0577 3.37537 10.0728 3.39201 10.0919C3.40864 10.1109 3.42175 10.1335 3.4306 10.1582C3.43944 10.183 3.44384 10.2096 3.44353 10.2363V17.7954C3.44352 17.8221 3.44822 17.8486 3.45735 17.8733C3.46648 17.8979 3.47986 17.9203 3.49671 17.9391C3.51356 17.9579 3.53355 17.9727 3.55551 17.9827C3.57747 17.9927 3.60097 17.9976 3.62464 17.9973H7.73385C7.78126 17.9973 7.82673 17.976 7.86025 17.9381C7.89378 17.9003 7.91261 17.8489 7.91261 17.7954V11.5643C7.91229 11.5374 7.91676 11.5106 7.92575 11.4856C7.93474 11.4607 7.94807 11.438 7.96495 11.4189C7.98184 11.3999 8.00193 11.3848 8.02404 11.3747C8.04616 11.3645 8.06985 11.3595 8.09373 11.3598H12.9086C12.9323 11.3598 12.9557 11.3651 12.9775 11.3754C12.9994 11.3857 13.0192 11.4009 13.0358 11.4199C13.0525 11.4389 13.0656 11.4615 13.0744 11.4863C13.0833 11.5111 13.0877 11.5376 13.0873 11.5643V17.7954C13.0873 17.8221 13.092 17.8486 13.1012 17.8733C13.1103 17.8979 13.1237 17.9203 13.1405 17.9391C13.1574 17.9579 13.1774 17.9727 13.1993 17.9827C13.2213 17.9927 13.2448 17.9976 13.2685 17.9973H17.3777C17.4251 17.9973 17.4705 17.976 17.5041 17.9381C17.5376 17.9003 17.5564 17.8489 17.5564 17.7954V10.2363C17.5561 10.2094 17.5606 10.1826 17.5696 10.1576C17.5786 10.1327 17.5919 10.11 17.6088 10.0909C17.6257 10.0718 17.6457 10.0568 17.6679 10.0466C17.69 10.0365 17.7137 10.0314 17.7375 10.0318H20.8212C20.8582 10.0318 20.8942 10.019 20.9244 9.99493C20.9546 9.97089 20.9775 9.93688 20.9899 9.89756C21.0022 9.85825 21.0035 9.81557 20.9935 9.7754C20.9836 9.73522 20.9628 9.69953 20.9341 9.67323L10.6152 0.0450774C10.5824 0.0134626 10.5407 -0.00390625 10.4976 -0.00390625C10.4545 -0.00390625 10.4128 0.0134626 10.38 0.0450774L0.065837 9.67323C0.0371515 9.69953 0.0163885 9.73522 0.00640474 9.7754C-0.00357907 9.81557 -0.00229308 9.85825 0.0100858 9.89756C0.0224646 9.93688 0.045328 9.97089 0.0755303 9.99493C0.105733 10.019 0.141789 10.0318 0.17874 10.0318Z" fill="#A08EC0"/></g><defs><clipPath id="clip0_644_8945"><rect width="21" height="18" fill="white"/></clipPath></defs></svg>