<svg width="21" height="18" viewBox="0 0 21 18" fill="none" xmlns="http://www.w3.org/2000/svg"><path d="M18.8447 4.38588H18.8798C19.237 4.3867 19.5833 4.26297 19.8591 4.03599C20.1349 3.80902 20.323 3.49299 20.3909 3.14231C20.4589 2.79163 20.4025 2.42822 20.2314 2.11465C20.0603 1.80108 19.7853 1.55696 19.4536 1.42429C19.122 1.29163 18.7544 1.27873 18.4143 1.38781C18.0741 1.4969 17.7827 1.72114 17.59 2.02194C17.3974 2.32275 17.3156 2.6813 17.3588 3.03588C17.402 3.39047 17.5675 3.7189 17.8267 3.96466C17.4777 4.92953 17.2091 5.92162 17.0237 6.93078C16.8552 7.86816 16.7613 8.81743 16.7429 9.76967C16.3509 9.91276 16.0227 10.1908 15.8172 10.5541C15.6117 10.9173 15.5423 11.3418 15.6215 11.7515C15.7007 12.1613 15.9234 12.5294 16.2494 12.7898C16.5755 13.0502 16.9837 13.1859 17.4008 13.1726C17.8179 13.1592 18.2166 12.9977 18.5254 12.717C18.8342 12.4362 19.0328 12.0546 19.0857 11.6407C19.1385 11.2267 19.0422 10.8075 18.8138 10.4582C18.5855 10.1088 18.2402 9.8523 17.8399 9.73456C17.8605 8.85959 17.9485 7.9875 18.1031 7.12604C18.2758 6.1941 18.5238 5.27771 18.8447 4.38588Z" fill="#A08EC0"/><path d="M8.58164 0.0101802C8.58164 0.0101802 5.25572 -0.242116 3.53572 1.76528C2.21939 3.301 2 4.83672 2 5.05611V15.9729C2 16.5101 2.21327 17.0254 2.59296 17.4055C2.97265 17.7856 3.4877 17.9994 4.02495 18H13.1383C13.6756 17.9994 14.1906 17.7856 14.5703 17.4055C14.95 17.0254 15.1633 16.5101 15.1633 15.9729V5.05611C15.1633 4.83672 14.9439 3.301 13.6276 1.76528C11.9076 -0.242116 8.58164 0.0101802 8.58164 0.0101802ZM12.1335 15.8061H5.02975C4.83904 15.8061 4.65598 15.7311 4.52011 15.5973C4.38423 15.4635 4.30646 15.2816 4.30357 15.0909C4.30213 14.7244 4.37308 14.3612 4.51234 14.0221C4.6516 13.6831 4.85645 13.3749 5.11511 13.1152C5.37378 12.8555 5.68117 12.6495 6.01966 12.5089C6.35816 12.3683 6.72108 12.2959 7.08761 12.2959H10.0757C10.4422 12.2959 10.8051 12.3683 11.1436 12.5089C11.4821 12.6495 11.7895 12.8555 12.0482 13.1152C12.3068 13.3749 12.5117 13.6831 12.6509 14.0221C12.7902 14.3612 12.8612 14.7244 12.8597 15.0909C12.8568 15.2816 12.779 15.4635 12.6432 15.5973C12.5073 15.7311 12.3242 15.8061 12.1335 15.8061ZM13.5179 9.29688C13.5179 9.62641 13.3871 9.94247 13.1543 10.1757C12.9215 10.4089 12.6057 10.5402 12.2761 10.5408H4.88715C4.55762 10.5402 4.24178 10.4089 4.00897 10.1757C3.77617 9.94247 3.64541 9.62641 3.64541 9.29688V5.63968C3.64541 5.31035 3.77624 4.99451 4.00911 4.76164C4.24198 4.52877 4.55782 4.39794 4.88715 4.39794H12.2761C12.6055 4.39794 12.9213 4.52877 13.1542 4.76164C13.387 4.99451 13.5179 5.31035 13.5179 5.63968V9.29688Z" fill="#A08EC0"/><path d="M5.81968 5.94449C5.66769 5.97834 5.53206 6.06364 5.43572 6.18597C5.33938 6.30829 5.28824 6.46014 5.29095 6.61582V8.75924C5.28731 8.9154 5.33806 9.06797 5.43451 9.19084C5.53096 9.3137 5.66712 9.39923 5.81968 9.43276C5.91534 9.45195 6.01407 9.44963 6.10873 9.42597C6.20338 9.40231 6.29159 9.3579 6.36698 9.29596C6.44236 9.23402 6.50302 9.15609 6.54459 9.06782C6.58615 8.97954 6.60756 8.88314 6.60728 8.78557V6.59169C6.60756 6.49412 6.58615 6.39771 6.54459 6.30944C6.50302 6.22117 6.44236 6.14324 6.36698 6.0813C6.29159 6.01936 6.20338 5.97495 6.10873 5.95129C6.01407 5.92763 5.91534 5.92531 5.81968 5.94449Z" fill="#A08EC0"/><path d="M8.45225 5.94449C8.30026 5.97834 8.16463 6.06364 8.06829 6.18597C7.97195 6.30829 7.92081 6.46014 7.92352 6.61582V8.75924C7.91988 8.9154 7.97063 9.06797 8.06708 9.19084C8.16353 9.3137 8.29969 9.39923 8.45225 9.43276C8.54791 9.45195 8.64664 9.44963 8.7413 9.42597C8.83595 9.40231 8.92416 9.3579 8.99954 9.29596C9.07493 9.23402 9.13559 9.15609 9.17715 9.06782C9.21871 8.97954 9.24013 8.88314 9.23985 8.78557V6.59169C9.24013 6.49412 9.21871 6.39771 9.17715 6.30944C9.13559 6.22117 9.07493 6.14324 8.99954 6.0813C8.92416 6.01936 8.83595 5.97495 8.7413 5.95129C8.64664 5.92763 8.54791 5.92531 8.45225 5.94449Z" fill="#A08EC0"/><path d="M11.0848 5.94449C10.9328 5.97834 10.7972 6.06364 10.7009 6.18597C10.6045 6.30829 10.5534 6.46014 10.5561 6.61582V8.75924C10.5524 8.9154 10.6032 9.06797 10.6996 9.19084C10.7961 9.3137 10.9323 9.39923 11.0848 9.43276C11.1805 9.45195 11.2792 9.44963 11.3739 9.42597C11.4685 9.40231 11.5567 9.3579 11.6321 9.29596C11.7075 9.23402 11.7682 9.15609 11.8097 9.06782C11.8513 8.97954 11.8727 8.88314 11.8724 8.78557V6.59169C11.8727 6.49412 11.8513 6.39771 11.8097 6.30944C11.7682 6.22117 11.7075 6.14324 11.6321 6.0813C11.5567 6.01936 11.4685 5.97495 11.3739 5.95129C11.2792 5.92763 11.1805 5.92531 11.0848 5.94449Z" fill="#A08EC0"/></svg>