<svg width="21" height="18" viewBox="0 0 21 18" fill="none" xmlns="http://www.w3.org/2000/svg"><g clip-path="url(#clip0_644_8948)"><path d="M2.9668 16.5563C2.96654 16.7461 3.00373 16.9341 3.07624 17.1095C3.14875 17.2848 3.25514 17.4442 3.38933 17.5784C3.52352 17.7126 3.68287 17.819 3.85825 17.8915C4.03363 17.964 4.22159 18.0012 4.41136 18.0009H8.75279V10.2656H2.9668V16.5563Z" fill="#A08EC0"/><path d="M10.7178 18.0009H15.0592C15.249 18.0012 15.4369 17.964 15.6123 17.8915C15.7877 17.819 15.947 17.7126 16.0812 17.5784C16.2154 17.4442 16.3218 17.2848 16.3943 17.1095C16.4668 16.9341 16.504 16.7461 16.5038 16.5563V10.2656H10.7178V18.0009Z" fill="#A08EC0"/><path d="M15.9235 6.39728H13.1407C13.9549 5.78426 16.3528 3.85237 15.8481 2.72302C15.2525 1.36935 13.864 0.209053 12.0771 0.789199C10.2903 1.36935 10.0911 4.27008 9.69274 4.27008C9.29437 4.27008 8.89987 1.17596 8.10507 0.402435C7.31027 -0.371093 5.12699 0.015671 4.133 1.17596C3.13902 2.33626 3.53739 3.68993 4.9278 4.46346C5.88118 4.99332 6.64697 5.88868 7.03567 6.39728H3.54706C3.13675 6.39728 2.74325 6.56027 2.45312 6.8504C2.16299 7.14053 2 7.53403 2 7.94433L2 9.49139H8.7529V6.39728H7.95037C7.10335 5.46518 5.09798 3.10978 5.73034 2.33626C6.17705 1.79285 6.96412 2.04618 7.51719 3.30317C8.11281 4.65684 9.10486 5.62375 9.70047 5.62375C10.4179 5.62375 12.0849 3.49655 13.0769 2.72302C13.5662 2.33626 14.4673 2.72302 13.8717 3.88331C13.3062 4.92625 12.4672 5.79537 11.4448 6.39728H10.7177V9.49139H17.4706V7.94433C17.4706 7.53403 17.3076 7.14053 17.0174 6.8504C16.7273 6.56027 16.3338 6.39728 15.9235 6.39728Z" fill="#A08EC0"/></g><defs><clipPath id="clip0_644_8948"><rect width="21" height="18" fill="white"/></clipPath></defs></svg>