<svg width="21" height="18" viewBox="0 0 21 18" fill="none" xmlns="http://www.w3.org/2000/svg"><path d="M18.1 0.9H15.4V0H4.6V0.9H1.9C1.36 0.9 1 1.26 1 1.8V3.96C1 6.03 2.53 7.74 4.6 8.01V8.1C4.6 10.71 6.4 12.87 8.83 13.41L8.2 15.3H6.13C5.77 15.3 5.41 15.57 5.32 15.93L4.6 18H15.4L14.68 15.93C14.59 15.57 14.23 15.3 13.87 15.3H11.8L11.17 13.41C13.6 12.87 15.4 10.71 15.4 8.1V8.01C17.47 7.74 19 6.03 19 3.96V1.8C19 1.26 18.64 0.9 18.1 0.9ZM4.6 6.21C3.61 5.94 2.8 5.04 2.8 3.96V2.7H4.6V6.21ZM11.8 9L10 8.01L8.2 9L8.65 7.2L7.3 5.4H9.19L10 3.6L10.81 5.4H12.7L11.35 7.2L11.8 9ZM17.2 3.96C17.2 5.04 16.39 6.03 15.4 6.21V2.7H17.2V3.96Z" fill="#A08EC0"/></svg>