<svg width="21" height="18" viewBox="0 0 21 18" fill="none" xmlns="http://www.w3.org/2000/svg"><path d="M10.0683 14.2598C10.0683 14.2598 9.6008 15.7792 8.31508 16.7143C7.53378 17.2802 6.66517 17.7145 5.74365 18H14.393C13.4715 17.7145 12.6029 17.2802 11.8216 16.7143C10.5359 15.7792 10.0683 14.2598 10.0683 14.2598Z" fill="#311C3C"/><path d="M14.6266 6.31169L17.2705 3.98922L14.1976 4.36208L14.8603 1.16883L11.8214 2.80519L11.2369 0L10.0681 3.03896L12.0832 4.44974L14.6266 6.31169Z" fill="#311C3C"/><path d="M16.1461 9.818C15.5722 9.03956 15.003 7.73281 14.0422 6.77904C12.2633 5.01294 10.0133 3.68164 10.0133 3.68164C10.0133 3.68164 5.50978 7.59723 3.87341 9.818C2.23705 12.0388 3.05523 15.0777 5.04224 15.779C6.8703 16.4242 9.58666 14.1041 10.0098 13.7277C10.4341 14.1041 13.1504 16.4242 14.9773 15.779C16.9643 15.0777 17.7825 12.0388 16.1461 9.818ZM11.0839 11.9418L10.6316 12.4981C10.6042 12.536 10.5682 12.5669 10.5265 12.5882C10.4849 12.6095 10.4388 12.6205 10.392 12.6205C10.3452 12.6205 10.2991 12.6095 10.2575 12.5882C10.2158 12.5669 10.1798 12.536 10.1524 12.4981C10.0882 12.4131 10.0535 12.3095 10.0535 12.203C10.0535 12.0965 10.0882 11.9929 10.1524 11.9079L10.5322 11.4403C10.3509 11.2078 10.1079 11.0308 9.83095 10.9296C9.69547 10.8787 9.55587 10.8396 9.41367 10.8127L9.1951 11.369C8.42835 13.3046 7.8825 14.6838 6.82939 14.6838C6.61837 14.6788 6.41036 14.6327 6.21692 14.5483C5.44432 14.2315 4.91134 13.4893 4.78861 12.5613C4.68108 11.7431 4.93237 10.9459 5.44198 10.4749C6.19588 9.77359 7.879 9.77359 9.01978 9.91385C9.54458 8.56151 9.43588 7.99112 9.36107 7.80995C9.33498 7.72043 9.27559 7.64431 9.1951 7.59723C9.01159 7.55281 8.89237 7.33307 8.92861 7.10632C8.96484 6.87956 9.14601 6.73463 9.32835 6.77904C9.37159 6.78956 9.75614 6.89593 9.97004 7.4371C10.2038 8.03904 10.1243 8.91099 9.71991 10.0354C9.83124 10.0601 9.94062 10.0929 10.0472 10.1336C10.5252 10.3288 11.1202 10.7542 11.2254 11.3024C11.2506 11.4128 11.251 11.5274 11.2266 11.638C11.2021 11.7486 11.1534 11.8523 11.0839 11.9418ZM14.6886 13.3175C14.2363 14.152 13.7839 14.7096 13.106 13.5957C12.4281 12.4818 10.6176 7.19164 10.1664 6.63528C9.71523 6.07891 9.31198 6.1432 9.26172 5.79956C9.20679 5.38229 9.71406 5.2432 10.6176 5.52138C11.5211 5.79956 12.6525 10.254 13.3304 11.6461C14.0083 13.0381 14.0083 12.76 14.4607 12.4818C14.913 12.2036 15.1398 12.4818 14.6886 13.3175Z" fill="#311C3C"/><path d="M5.84878 11.1465C5.53554 11.4352 5.38943 11.9144 5.45722 12.4322C5.4866 12.7198 5.59221 12.9944 5.76316 13.2277C5.93411 13.4609 6.16421 13.6442 6.42969 13.7588C7.30164 14.1095 7.66398 13.331 8.58502 11.0062L8.7019 10.7163C8.44125 10.6918 8.15956 10.6778 7.87554 10.6778C7.05735 10.6754 6.22748 10.7958 5.84878 11.1465Z" fill="#311C3C"/></svg>