<svg xmlns="http://www.w3.org/2000/svg" xmlns:xlink="http://www.w3.org/1999/xlink" width="95.18" height="99.82" viewBox="0 0 95.18 99.82"><defs><radialGradient id="Безымянный_градиент_39" data-name="Безымянный градиент 39" cx="46.44" cy="41.79" fy="8.15562887591991" r="47.84" gradientUnits="userSpaceOnUse"><stop offset="0.47" stop-color="#f9e277"/><stop offset="0.73" stop-color="#f8e075"/><stop offset="0.82" stop-color="#f7d96f"/><stop offset="0.89" stop-color="#f3ce65"/><stop offset="0.94" stop-color="#eebd56"/><stop offset="0.99" stop-color="#e8a742"/><stop offset="1" stop-color="#e69f3b"/></radialGradient><linearGradient id="Безымянный_градиент_61" data-name="Безымянный градиент 61" x1="47.07" y1="19.92" x2="47.72" y2="54.41" gradientUnits="userSpaceOnUse"><stop offset="0" stop-color="#cfc5dd"/><stop offset="0.5" stop-color="#63518d"/><stop offset="1" stop-color="#151b25"/></linearGradient></defs><title>1Ресурс 17</title><g id="Слой_2" data-name="Слой 2"><g id="Слой_1-2" data-name="Слой 1"><g><path d="M81.07,31.82A375.81,375.81,0,0,1,47.62,3,385,385,0,0,1,14.11,31.82c-20.69,16-15,39-5.64,44s16,4,18.81,4,9.41-1,9.41-1-1.07,7.18-13.17,10c-4.69,1.09-5.65,1-5.65,1l1.88,10s.69.18,17.88-3a50.74,50.74,0,0,1,19.92,0c17.89,3.18,17.87,3,17.87,3l1.88-10s-1,.09-5.64-1c-12.1-2.82-13.17-10-13.17-10s6.59,1,9.41,1,9.4,1,18.81-4S101.76,47.82,81.07,31.82ZM79.86,66c-5.75,6.31-19.26,3-23.32,0s-6-7.8-8.95-8c-3,.18-5,5-9,8s-17.56,6.31-23.31,0c-9.13-10-3.05-24,9.12-33,10.93-8.09,21-17,23-18.7V14l.17.15.17-.15v.3c1.93,1.72,12,10.61,23,18.7C82.9,42,89,56,79.86,66Z" style="fill:#331942"/><path d="M81.07,28.82A375.81,375.81,0,0,1,47.62,0,385,385,0,0,1,14.11,28.82c-20.69,16-15,39-5.64,44s16,4,18.81,4,9.41-1,9.41-1-1.07,7.18-13.17,10c-4.69,1.09-5.65,1-5.65,1l1.88,10s.69.18,17.88-3a50.74,50.74,0,0,1,19.92,0c17.89,3.18,17.87,3,17.87,3l1.88-10s-1,.09-5.64-1c-12.1-2.82-13.17-10-13.17-10s6.59,1,9.41,1,9.4,1,18.81-4S101.76,44.82,81.07,28.82ZM79.86,63c-5.75,6.31-19.26,3-23.32,0s-6-7.8-8.95-8c-3,.18-5,5-9,8s-17.56,6.31-23.31,0c-9.13-10-3.05-24,9.12-33,10.93-8.09,21-17,23-18.7V11l.17.15.17-.15v.3c1.93,1.72,12,10.61,23,18.7C82.9,39,89,53,79.86,63Z" style="fill:#bf6e2b"/><path d="M70.74,30c-10.94-8.09-21-17-23-18.7V11l-.17.15L47.42,11v.3C45.48,13,35.37,21.91,24.44,30,12.27,39,6.19,53,15.32,63c5.75,6.31,19.26,3,23.31,0s6-7.8,9-8c2.95.18,5,5,8.95,8s17.57,6.31,23.32,0C89,53,82.9,39,70.74,30Z" style="fill:#0b0910"/><path d="M12.31,56.77S16.37,63,23.44,63c9,0,14-3,18-7s7-5,10-3,3,5,8,8,14,3,18,1a14.52,14.52,0,0,0,5.84-5.36L79.44,63l-14,4h-47l-9-5Z" style="fill:#f3e9e0"/><path d="M81.07,28A371.94,371.94,0,0,1,47.62,0,381.08,381.08,0,0,1,14.11,28C-6.58,43.52-.94,65.85,8.47,70.7s16,3.88,18.81,3.88,9.41-1,9.41-1-1.07,9-13.17,11.71c-4.69,1.06-5.65,1-5.65,1L19.75,96s10.35-3,17.88-4.91a36.6,36.6,0,0,1,19.92,0C65.08,93,75.42,96,75.42,96l1.88-9.71s-1,.09-5.64-1c-12.1-2.74-13.17-11.71-13.17-11.71s6.59,1,9.41,1,9.4,1,18.81-3.88S101.76,43.52,81.07,28ZM79.86,61.16c-5.75,6.13-19.26,2.92-23.32,0s-6-7.57-8.95-7.75c-3,.18-5,4.9-9,7.75s-17.56,6.13-23.31,0c-9.13-9.7-3.05-25.3,9.12-34,10.93-7.86,21-16.49,23-18.16V8.68l.17.15.17-.15V9c1.93,1.67,12,10.3,23,18.16C82.9,35.86,89,51.46,79.86,61.16Z" style="fill:url(#Безымянный_градиент_39)"/><path d="M14.84,37.36a35.65,35.65,0,0,1,9.6-10.23c10.93-7.86,21-16.49,23-18.16V8.68l.17.15.17-.15V9c1.93,1.67,12,10.3,23,18.16a36.42,36.42,0,0,1,8.34,8.33c2.55-.92,4.9.06,7-1.05a42.73,42.73,0,0,0-5-4.43A371.94,371.94,0,0,1,47.62,2,381.08,381.08,0,0,1,14.11,30,40.49,40.49,0,0,0,7,36.77C9.41,37.73,12,36.6,14.84,37.36Z" style="fill:#f3e9e0"/><path d="M53.13,79c-3.54-3.75-6.19-10-6.19-10s-2.66,6.25-6.2,10a41.83,41.83,0,0,1-5.3,5h23A42.17,42.17,0,0,1,53.13,79Z" style="fill:#bf6e2b"/><path d="M53.13,80a31.6,31.6,0,0,1-6.19-8,31.76,31.76,0,0,1-6.2,8,40,40,0,0,1-5.3,4h23A40.31,40.31,0,0,1,53.13,80Z" style="fill:#13161a"/><path d="M67.06,30.45c-5-3.65-10.32-8-14.17-11.22a8.39,8.39,0,0,0-10.83.05c-3.77,3.22-9,7.54-14,11.17C17.88,38,12.76,47.65,20.44,56c4.84,5.26,12.2,2.5,15.61,0s9.06-8.51,11.54-8.66C52.44,46,55.78,53.54,59.12,56s10.78,5.26,15.62,0C82.42,47.65,77.3,38,67.06,30.45Z" style="fill:url(#Безымянный_градиент_61)"/><g><path d="M66.44,45.31c-2,1-2,1.94-5-2.92s-8-20.43-12-21.4-6.25-.49-6,1c.2,1.2,2,1,4,2.92s10,20.43,13,24.32,5,1.94,7-1S68.44,44.33,66.44,45.31Z" style="fill:#827d8c"/><path d="M46.91,37.11a11.36,11.36,0,0,0-1.45-.34c1.79-3.93,2.17-7,1.11-9.08a4.3,4.3,0,0,0-2.84-2.3A1.5,1.5,0,0,0,42,26.54a1.44,1.44,0,0,0,1.17,1.71,1.37,1.37,0,0,1,.73.72c.33.65.81,2.65-1.51,7.37-5-.51-12.49-.47-15.82,2a7.42,7.42,0,0,0-2.89,7.29A8.91,8.91,0,0,0,30,52.53a8.83,8.83,0,0,0,2.71.47c4.66,0,7.08-4.82,10.47-11.58.31-.63.64-1.27,1-1.94a12.56,12.56,0,0,1,1.85.4,7,7,0,0,1,3.1,1.79L47.38,43.3a1.43,1.43,0,0,0,0,2.07,1.53,1.53,0,0,0,2.12,0l2-1.95a2.26,2.26,0,0,0,.63-2.21C51.66,39.28,49,37.8,46.91,37.11Zm-6.47,3c-4.07,8.12-5.67,10.87-9.53,9.62a6,6,0,0,1-4.3-4.64,4.48,4.48,0,0,1,1.73-4.48C30,39.41,33.68,39,37.3,39c1.25,0,2.5,0,3.65.14Z" style="fill:#827d8c"/></g><g><path d="M66.44,44.31c-2,1-2,1.94-5-2.92s-8-20.43-12-21.4-6.25-.49-6,1c.2,1.2,2,1,4,2.92s10,20.43,13,24.32,5,1.94,7-1S68.44,43.33,66.44,44.31Z" style="fill:#0d0d0d"/><path d="M46.91,36.11a11.36,11.36,0,0,0-1.45-.34c1.79-3.93,2.17-7,1.11-9.08a4.3,4.3,0,0,0-2.84-2.3A1.5,1.5,0,0,0,42,25.54a1.44,1.44,0,0,0,1.17,1.71,1.37,1.37,0,0,1,.73.72c.33.65.81,2.65-1.51,7.37-5-.51-12.49-.47-15.82,2a7.42,7.42,0,0,0-2.89,7.29A8.91,8.91,0,0,0,30,51.53a8.83,8.83,0,0,0,2.71.47c4.66,0,7.08-4.82,10.47-11.58.31-.63.64-1.27,1-1.94a12.56,12.56,0,0,1,1.85.4,7,7,0,0,1,3.1,1.79L47.38,42.3a1.43,1.43,0,0,0,0,2.07,1.53,1.53,0,0,0,2.12,0l2-1.95a2.26,2.26,0,0,0,.63-2.21C51.66,38.28,49,36.8,46.91,36.11Zm-6.47,3c-4.07,8.12-5.67,10.87-9.53,9.62a6,6,0,0,1-4.3-4.64,4.48,4.48,0,0,1,1.73-4.48C30,38.41,33.68,38,37.3,38c1.25,0,2.5,0,3.65.14Z" style="fill:#0d0d0d"/></g><path d="M35.44,84S44,82.78,46.86,82.77,58.44,84,58.44,84Z" style="fill:#f3e9e0"/></g></g></g></svg>