<svg id="Слой_1" data-name="Слой 1" xmlns="http://www.w3.org/2000/svg" xmlns:xlink="http://www.w3.org/1999/xlink" viewBox="0 0 187.97 39.07"><defs><style>.cls-1{fill:url(#Безымянный_градиент);}.cls-2{fill:url(#Безымянный_градиент_2);}.cls-3{fill:url(#Безымянный_градиент_3);}.cls-4{fill:url(#Безымянный_градиент_4);}.cls-5{fill:url(#Безымянный_градиент_5);}.cls-6{fill:url(#Безымянный_градиент_6);}.cls-7{fill:#fff;}.cls-8{fill:#f2f2f2;}.cls-9{fill:url(#Безымянный_градиент_5-2);}.cls-10{stroke:#fff;stroke-miterlimit:10;stroke-width:0.75px;fill:url(#Безымянный_градиент_8);}</style><linearGradient id="Безымянный_градиент" x1="6" y1="1047.25" x2="36.95" y2="1047.25" gradientTransform="translate(0 -1022)" gradientUnits="userSpaceOnUse"><stop offset="0" stop-color="#2e3192"/><stop offset="0.17" stop-color="#1b1464"/><stop offset="0.55" stop-color="#0061ce"/><stop offset="1" stop-color="#000075"/></linearGradient><linearGradient id="Безымянный_градиент_2" x1="61.4" y1="1046" x2="88.72" y2="1046" xlink:href="#Безымянный_градиент"/><linearGradient id="Безымянный_градиент_3" x1="21.5" y1="1034.91" x2="21.5" y2="1066" gradientTransform="translate(0 -1022)" gradientUnits="userSpaceOnUse"><stop offset="0" stop-color="#00b3de"/><stop offset="0.4" stop-color="#f8fdfe"/><stop offset="0.44" stop-color="#004ca2"/><stop offset="0.75" stop-color="#42c6e7"/><stop offset="0.99" stop-color="#fff"/></linearGradient><linearGradient id="Безымянный_градиент_4" x1="75.29" y1="1032.09" x2="74.77" y2="1065.91" gradientTransform="translate(0 -1022)" gradientUnits="userSpaceOnUse"><stop offset="0" stop-color="#00b3de"/><stop offset="0.4" stop-color="#f8fdfe"/><stop offset="0.44" stop-color="#004ca2"/><stop offset="0.74" stop-color="#42c6e7"/><stop offset="0.99" stop-color="#fff"/></linearGradient><linearGradient id="Безымянный_градиент_5" x1="114.53" y1="1045.63" x2="145.76" y2="1048.54" xlink:href="#Безымянный_градиент"/><linearGradient id="Безымянный_градиент_6" x1="129.33" y1="1035.28" x2="128.56" y2="1065.52" gradientTransform="translate(0 -1022)" gradientUnits="userSpaceOnUse"><stop offset="0" stop-color="#00b3de"/><stop offset="0.4" stop-color="#f8fdfe"/><stop offset="0.44" stop-color="#004ca2"/><stop offset="0.79" stop-color="#42c6e7"/><stop offset="0.99" stop-color="#fff"/></linearGradient><linearGradient id="Безымянный_градиент_5-2" x1="169.34" y1="31.57" x2="193.57" y2="31.57" gradientTransform="matrix(1, 0, 0, -1, 0, 58)" xlink:href="#Безымянный_градиент"/><linearGradient id="Безымянный_градиент_8" x1="181.45" y1="43.15" x2="181.45" y2="12.33" gradientTransform="matrix(1, 0, 0, -1, 0, 58)" xlink:href="#Безымянный_градиент_6"/></defs><title>currency</title><path class="cls-1" d="M25.3,30.4a13.23,13.23,0,0,0,8.8-3.7A10,10,0,0,0,37,19.2,9.76,9.76,0,0,0,34.4,12c-1.7-1.7-4.4-2.5-8-2.5H10.1V23.6H6v6.8h4.1v1.9H6v4.8h4.1V41h9.8V37.1h6.5V32.3H19.9V30.4ZM19.9,15.9h2.8c1.8,0,3.1.3,3.7,1a3.47,3.47,0,0,1,1,2.5A3.22,3.22,0,0,1,26.2,22a6,6,0,0,1-4,1.6H19.8Z" transform="translate(-6 -7)"/><path class="cls-2" d="M87.5,24.4a9.33,9.33,0,0,0-3.8-3.3A30.71,30.71,0,0,0,77,19V14.4c.2.1.3.2.5.3A4.56,4.56,0,0,1,79,17.6l8.8-.5c-.4-3.1-1.6-5.3-3.6-6.7a13.94,13.94,0,0,0-7.2-2V7H73V8.4a15,15,0,0,0-5.1,1.1,8.32,8.32,0,0,0-4,3.2A7.6,7.6,0,0,0,62.5,17a7,7,0,0,0,2.6,5.7c1.6,1.4,4.2,2.5,7.8,3.4v6.5a4.81,4.81,0,0,1-1.6-1.2,6.28,6.28,0,0,1-1.2-3.2l-8.8.5a12,12,0,0,0,3.3,7.4c1.6,1.6,4.4,2.5,8.3,2.8V41h4V38.8a18.11,18.11,0,0,0,5.6-1.2A9.92,9.92,0,0,0,87,34a8.87,8.87,0,0,0,1.6-5.2A7.43,7.43,0,0,0,87.5,24.4Zm-15.7-7a1.71,1.71,0,0,1-.7-1.3,1.92,1.92,0,0,1,.9-1.6,3.13,3.13,0,0,1,1-.5v4a3.38,3.38,0,0,1-1.2-.6Zm6.8,14.8A4.81,4.81,0,0,1,77,33V27.2a5.56,5.56,0,0,1,1.7.9,2.78,2.78,0,0,1,1,2A3.11,3.11,0,0,1,78.6,32.2Z" transform="translate(-6 -7)"/><path class="cls-3" d="M25.3,33.3a13.23,13.23,0,0,0,8.8-3.7A10,10,0,0,0,37,22.1a9.76,9.76,0,0,0-2.6-7.2c-1.7-1.7-4.4-2.5-8-2.5H10.1V26.5H6v6.8h4.1v1.9H6V40h4.1v4h9.8V40.1h6.5V35.3H19.9V33.4h5.4ZM19.9,18.8h2.8c1.8,0,3.1.3,3.7,1a3.47,3.47,0,0,1,1,2.5,3.25,3.25,0,0,1-1.1,2.5,6,6,0,0,1-4,1.6H19.9Z" transform="translate(-6 -7)"/><path class="cls-4" d="M87.5,27.4a9.33,9.33,0,0,0-3.8-3.3A30.71,30.71,0,0,0,77,22V17.4c.2.1.3.2.5.3A4.56,4.56,0,0,1,79,20.6l8.8-.5c-.4-3.1-1.6-5.3-3.6-6.7a13.94,13.94,0,0,0-7.2-2V10H73v1.4a15,15,0,0,0-5.1,1.1,8.32,8.32,0,0,0-4,3.2A7.6,7.6,0,0,0,62.5,20a7,7,0,0,0,2.6,5.7c1.6,1.4,4.2,2.5,7.8,3.4v6.5a4.81,4.81,0,0,1-1.6-1.2,6.28,6.28,0,0,1-1.2-3.2l-8.8.5a12,12,0,0,0,3.3,7.4c1.6,1.6,4.4,2.5,8.3,2.8V44h4V41.8a18.11,18.11,0,0,0,5.6-1.2A9.92,9.92,0,0,0,87,37a8.87,8.87,0,0,0,1.6-5.2A7.43,7.43,0,0,0,87.5,27.4Zm-15.7-7a1.71,1.71,0,0,1-.7-1.3,1.92,1.92,0,0,1,.9-1.6,3.13,3.13,0,0,1,1-.5v4a3.38,3.38,0,0,1-1.2-.6Zm6.8,14.8A4.81,4.81,0,0,1,77,36V30.2a5.56,5.56,0,0,1,1.7.9,2.81,2.81,0,0,1,1,2.1A3.12,3.12,0,0,1,78.6,35.2Z" transform="translate(-6 -7)"/><path class="cls-5" d="M144,16.9V13.8c-1-.7-2-1.4-3.1-2.1a16.3,16.3,0,0,0-8.1-1.8,15.36,15.36,0,0,0-11.5,4.9,11.73,11.73,0,0,0-3.1,5.1h-2.1L113,25v3.1h1.9L113,31.2v3.1h6.8a.1.1,0,0,0,.1.1,12.42,12.42,0,0,0,5.4,5,19.88,19.88,0,0,0,8,1.4,22.33,22.33,0,0,0,7.7-1.4,12.65,12.65,0,0,0,3.1-2V30.2c0,.9-4.5,3.1-8.9,3.2l1.7-4.3V26h-1.2l1.2-3.1h0l-2.1-3.1h-4.9a8.64,8.64,0,0,1,5.9-2A38.14,38.14,0,0,0,144,16.9Zm-17,9.3v0Z" transform="translate(-6 -7)"/><path class="cls-6" d="M133.2,43.6a18.93,18.93,0,0,1-7.8-1.4,12.08,12.08,0,0,1-5.2-4.8,12.32,12.32,0,0,1-1.4-3.1l-.1-.3h-4.9l2.6-4.3h1.7v-2h-4.3l2.6-4.3h2.2l.1-.3a11.21,11.21,0,0,1,3-5,14.89,14.89,0,0,1,11.2-4.7,17,17,0,0,1,8,1.7l2.7,1.8-2.7,5.4a8.26,8.26,0,0,0-5-1.8,8.76,8.76,0,0,0-6.2,2.2l-.8.7h7.4l-1.7,4.3h-7.8v1.9h9.6L134.6,34h-6.5l.6.7a6.67,6.67,0,0,0,4.1,2.2,13.55,13.55,0,0,0,2,.2,17.67,17.67,0,0,0,9-2.5v5.9a11.18,11.18,0,0,1-2.9,1.9A30,30,0,0,1,133.2,43.6Z" transform="translate(-6 -7)"/><path class="cls-7" d="M132.8,13.9a16.17,16.17,0,0,1,7.8,1.7,21.28,21.28,0,0,1,2.5,1.6l-2.3,4.6a8.44,8.44,0,0,0-4.9-1.6,8.89,8.89,0,0,0-6.4,2.3L127.8,24h8l-1.4,3.5h-7.9l-.1.8v1.9h9.4l-1.4,3.5H127l1.2,1.4a6.8,6.8,0,0,0,4.3,2.3,14.92,14.92,0,0,0,2.1.2,19.94,19.94,0,0,0,8.6-2.2v5a14.52,14.52,0,0,1-2.6,1.7,21,21,0,0,1-7.4,1.3,20.46,20.46,0,0,1-7.7-1.3,11.92,11.92,0,0,1-5-4.7,10.11,10.11,0,0,1-1.3-3l-.2-.6h-4.5l2.1-3.5h1.9V27.4h-3.9l2.1-3.5H119l.2-.6a11.09,11.09,0,0,1,2.8-4.8,14.14,14.14,0,0,1,10.8-4.6m0-.8A15.36,15.36,0,0,0,121.3,18a11.73,11.73,0,0,0-3.1,5.1H116l-3.1,5.1h4.6v1.1H116l-3.1,5.1h5.4a13,13,0,0,0,1.4,3.2,12.42,12.42,0,0,0,5.4,5,19.88,19.88,0,0,0,8,1.4,22.77,22.77,0,0,0,7.7-1.4,10.62,10.62,0,0,0,3.1-2.1V33.3c0,.9-4.8,3.2-9.4,3.2a6.15,6.15,0,0,1-1.9-.2,5.83,5.83,0,0,1-3.8-2.1h5.9l2.1-5.1H127v-1h7.7l2.1-5.1h-7a8.57,8.57,0,0,1,5.9-2.1,7.79,7.79,0,0,1,5.2,2.1l3.1-6.2c-1-.7-2-1.4-3.1-2.1a18.62,18.62,0,0,0-8.1-1.6Z" transform="translate(-6 -7)"/><path class="cls-8" d="M76.2,10.8v1.4l.8.1a13,13,0,0,1,6.7,1.9,7.72,7.72,0,0,1,3.1,5.3l-7.2.4A5,5,0,0,0,78,17.2c-.2-.1-.4-.3-.6-.4l-1.2-.7v6.5l.6.1a37.89,37.89,0,0,1,6.5,2.1,9.22,9.22,0,0,1,3.5,3,8,8,0,0,1,1.1,4,8.27,8.27,0,0,1-1.5,4.8,8.77,8.77,0,0,1-4.1,3.3,16.06,16.06,0,0,1-5.3,1h-.8v2.2H73.8V41h-.7c-3.7-.3-6.3-1.1-7.8-2.6a10.44,10.44,0,0,1-3-6l7.3-.5a8.13,8.13,0,0,0,1.2,2.9,6.55,6.55,0,0,0,1.8,1.5l1.2.6V28.5l-.6-.1c-3.5-.8-6-1.9-7.5-3.2a6.55,6.55,0,0,1-2.4-5.1,6.89,6.89,0,0,1,1.2-3.9,8.17,8.17,0,0,1,3.7-2.9,15.81,15.81,0,0,1,4.8-1l.7-.1V10.8h2.5M73.8,22.1V16l-1,.3a2.39,2.39,0,0,0-1.3.7,2.84,2.84,0,0,0-1.1,2.3,2.43,2.43,0,0,0,.9,1.8,3.48,3.48,0,0,0,1.5.7l1,.3m2.4,14.8,1-.2a4.2,4.2,0,0,0,1.9-.9,3.68,3.68,0,0,0,1.3-2.7,3.32,3.32,0,0,0-1.3-2.6,6.92,6.92,0,0,0-1.9-1l-1-.5v7.9M77,10H73v1.4a15,15,0,0,0-5.1,1.1,8.32,8.32,0,0,0-4,3.2A7.6,7.6,0,0,0,62.5,20a7,7,0,0,0,2.6,5.7c1.6,1.4,4.2,2.5,7.8,3.4v6.5a4.81,4.81,0,0,1-1.6-1.2,6.28,6.28,0,0,1-1.2-3.2l-8.8.5a12,12,0,0,0,3.3,7.4c1.6,1.6,4.4,2.5,8.3,2.8V44h4V41.8a18.11,18.11,0,0,0,5.6-1.2A9.92,9.92,0,0,0,87,37a8.87,8.87,0,0,0,1.6-5.2,8.56,8.56,0,0,0-1.2-4.4,9.33,9.33,0,0,0-3.8-3.3A30.71,30.71,0,0,0,76.9,22V17.4c.2.1.3.2.5.3a4.56,4.56,0,0,1,1.5,2.9l8.8-.5c-.4-3.1-1.6-5.3-3.6-6.7a13.94,13.94,0,0,0-7.2-2V10ZM73,21a3.38,3.38,0,0,1-1.2-.6,1.71,1.71,0,0,1-.7-1.3,1.8,1.8,0,0,1,.9-1.6,3.13,3.13,0,0,1,1-.5Zm4,14.9V30.1a5.56,5.56,0,0,1,1.7.9,2.81,2.81,0,0,1,1,2.1,2.61,2.61,0,0,1-1.1,2.1,4.59,4.59,0,0,1-1.6.7Z" transform="translate(-6 -7)"/><path class="cls-8" d="M26.3,13.1c3.3,0,5.8.8,7.4,2.3A8.63,8.63,0,0,1,36.1,22a8.82,8.82,0,0,1-2.6,6.9,11.82,11.82,0,0,1-8.3,3.5H19.1V36h6.5v3.3H19.1v3.9H10.8V39.3h-4V36h4.1V32.5H6.8V27.3h4.1V13.1H26.3M19.1,27.3h3.2a6.71,6.71,0,0,0,4.5-1.8,4.1,4.1,0,0,0,1.4-3.1A4.65,4.65,0,0,0,27,19.3c-.8-.9-2.2-1.3-4.3-1.3H19.1v9.3m7.2-14.9H10.1V26.5H6v6.8h4.1v1.9H6V40h4.1v4h9.8V40.1h6.5V35.3H19.9V33.4h5.4a13.23,13.23,0,0,0,8.8-3.7A10,10,0,0,0,37,22.2,9.76,9.76,0,0,0,34.4,15C32.7,13.3,29.9,12.4,26.3,12.4ZM19.9,26.5V18.8h2.8c1.8,0,3.1.3,3.7,1a3.47,3.47,0,0,1,1,2.5,3.25,3.25,0,0,1-1.1,2.5,6,6,0,0,1-4,1.6Z" transform="translate(-6 -7)"/><path class="cls-9" d="M193.6,11v10.1H169.3V11Zm0,7.3v5.1h-8.4v18.5H178V23.38h-8.7v-5.1Z" transform="translate(-6 -7)"/><path class="cls-10" d="M193.6,14.8v4H169.4v-4Zm0,7.3v5.1h-8.4V45.7H178V27.2h-8.7V22.1Z" transform="translate(-6 -7)"/></svg>