<svg id="Слой_1" data-name="Слой 1" xmlns="http://www.w3.org/2000/svg" xmlns:xlink="http://www.w3.org/1999/xlink" width="24" height="400" viewBox="0 0 24 400"><defs><linearGradient id="Безымянный_градиент_69" data-name="Безымянный градиент 69" x1="0.7" y1="18.5" x2="23.65" y2="18.5" gradientUnits="userSpaceOnUse"><stop offset="0" stop-color="#2e3192"/><stop offset="0.17" stop-color="#1b1464"/><stop offset="0.55" stop-color="#0061ce"/><stop offset="1" stop-color="#000075"/></linearGradient><linearGradient id="Безымянный_градиент_49" data-name="Безымянный градиент 49" x1="12.11" y1="6.21" x2="12.24" y2="36.44" gradientUnits="userSpaceOnUse"><stop offset="0" stop-color="#00b3de"/><stop offset="0.47" stop-color="#f8fdfe"/><stop offset="0.52" stop-color="#004ca2"/><stop offset="0.87" stop-color="#42c6e7"/><stop offset="0.99" stop-color="#fff"/></linearGradient><linearGradient id="Безымянный_градиент_72" data-name="Безымянный градиент 72" x1="2.66" y1="58.27" x2="21.69" y2="58.27" gradientUnits="userSpaceOnUse"><stop offset="0" stop-color="#2e3192"/><stop offset="0.39" stop-color="#1b1464"/><stop offset="0.44" stop-color="#0064bd"/><stop offset="1" stop-color="#000075"/></linearGradient><linearGradient id="Безымянный_градиент_49-2" x1="11.73" y1="48.15" x2="12.24" y2="74.8" xlink:href="#Безымянный_градиент_49"/><linearGradient id="Безымянный_градиент_69-2" x1="1.49" y1="139.63" x2="22.86" y2="139.63" xlink:href="#Безымянный_градиент_69"/><linearGradient id="Безымянный_градиент_49-3" x1="12.27" y1="126.69" x2="12.14" y2="155.64" xlink:href="#Безымянный_градиент_49"/><linearGradient id="Безымянный_градиент_69-3" x1="2.79" y1="98.71" x2="23.67" y2="98.45" xlink:href="#Безымянный_градиент_69"/><linearGradient id="Безымянный_градиент_49-4" x1="12.17" y1="87.61" x2="12.17" y2="115.03" xlink:href="#Безымянный_градиент_49"/><linearGradient id="Безымянный_градиент_69-4" x1="0.27" y1="178.31" x2="24.08" y2="178.31" xlink:href="#Безымянный_градиент_69"/><linearGradient id="Безымянный_градиент_49-5" x1="12.09" y1="170.09" x2="12.22" y2="195.97" xlink:href="#Безымянный_градиент_49"/><linearGradient id="Безымянный_градиент_69-5" x1="1.65" y1="218.76" x2="22.7" y2="218.76" xlink:href="#Безымянный_градиент_69"/><linearGradient id="Безымянный_градиент_49-6" x1="12.53" y1="207.76" x2="12.01" y2="235.56" xlink:href="#Безымянный_градиент_49"/><linearGradient id="Безымянный_градиент_69-6" x1="0.67" y1="259.94" x2="23.67" y2="259.94" xlink:href="#Безымянный_градиент_69"/><linearGradient id="Безымянный_градиент_49-7" x1="12.09" y1="248.04" x2="12.23" y2="277.81" xlink:href="#Безымянный_градиент_49"/><linearGradient id="Безымянный_градиент_69-7" x1="1.14" y1="301" x2="23.21" y2="301" xlink:href="#Безымянный_градиент_69"/><linearGradient id="Безымянный_градиент_49-8" x1="12.19" y1="289.59" x2="12.06" y2="316.07" xlink:href="#Безымянный_градиент_49"/><linearGradient id="Безымянный_градиент_69-8" x1="0.83" y1="338.35" x2="23.52" y2="338.35" xlink:href="#Безымянный_градиент_69"/><linearGradient id="Безымянный_градиент_61" data-name="Безымянный градиент 61" x1="11.88" y1="327.04" x2="12.27" y2="354.55" gradientUnits="userSpaceOnUse"><stop offset="0" stop-color="#00b3de"/><stop offset="0.47" stop-color="#f8fdfe"/><stop offset="0.54" stop-color="#004ca2"/><stop offset="0.87" stop-color="#42c6e7"/><stop offset="0.99" stop-color="#fff"/></linearGradient><linearGradient id="Безымянный_градиент_69-9" x1="1.05" y1="379.14" x2="23.3" y2="379.14" xlink:href="#Безымянный_градиент_69"/><linearGradient id="Безымянный_градиент_49-9" x1="12.29" y1="367.62" x2="12.02" y2="395.69" xlink:href="#Безымянный_градиент_49"/></defs><title>Num_Монтажная область 1</title><g><path d="M3.68,29.86q-3-3.54-3-11.36t3-11.36q3-3.55,8.49-3.55t8.5,3.55q3,3.56,3,11.36,0,7.21-2.76,11.07t-8.72,3.85Q6.67,33.42,3.68,29.86ZM15.31,18c0-6-.66-7.7-3.14-7.82C8.65,10,8.47,14,8.47,18s.18,9,3.18,9C15.65,27,15.31,23,15.31,18Z" style="fill:url(#Безымянный_градиент_69)"/><path d="M3.68,32.86q-3-3.54-3-11.36t3-11.36q3-3.56,8.49-3.55t8.5,3.55q3,3.56,3,11.36,0,7.21-2.76,11.07t-8.72,3.85Q6.67,36.42,3.68,32.86ZM15.31,21c0-6-.66-7.7-3.14-7.82C8.65,13,8.47,17,8.47,21s.18,9,3.18,9C15.65,30,15.31,26,15.31,21Z" style="fill:url(#Безымянный_градиент_49)"/><path d="M12.17,7.39c3.46,0,6,1.07,7.88,3.27s2.8,5.86,2.8,10.84c0,4.62-.88,8.19-2.61,10.6s-4.33,3.52-8.07,3.52c-3.45,0-6-1.07-7.87-3.27S1.5,26.49,1.5,21.5s.94-8.63,2.8-10.84,4.42-3.27,7.87-3.27M11.65,30.8a4,4,0,0,0,3-1.08c1.51-1.52,1.5-4.35,1.48-7.63V21c0-5.83-.57-8.45-3.9-8.62H12c-4.28,0-4.28,5.19-4.28,8.63,0,3.67,0,9.8,4,9.8m.52-24.21q-5.5,0-8.49,3.55T.7,21.5q0,7.82,3,11.36t8.49,3.56q6,0,8.72-3.85T23.65,21.5q0-7.8-3-11.36t-8.5-3.55ZM11.65,30c-3,0-3.18-5-3.18-9s.17-7.83,3.48-7.83h.22c2.48.12,3.14,1.82,3.14,7.82,0,5,.34,9-3.66,9Z" style="fill:#fff;opacity:0.81"/></g><g><path d="M2.69,71.71V67H9.1V52.5H2.66V48.6a24.23,24.23,0,0,0,5-1.6,21.24,21.24,0,0,0,2.79-2.17h5.93V67h5.28v4.67Z" style="fill:url(#Безымянный_градиент_72)"/><path d="M2.69,74.71V70H9.1V55.5H2.66V51.6a24.23,24.23,0,0,0,5-1.6,21.24,21.24,0,0,0,2.79-2.17h5.93V70h5.28v4.67Z" style="fill:url(#Безымянный_градиент_49-2)"/><path d="M15.61,48.63V70.84h5.28v3.07H3.49V70.84H9.9V54.7H3.46V52.24a23,23,0,0,0,4.59-1.52,19,19,0,0,0,2.74-2.09h4.82m.8-.8H10.48A21.24,21.24,0,0,1,7.69,50a24.23,24.23,0,0,1-5,1.6v3.9H9.1V70H2.69v4.67h19V70H16.41V47.83Z" style="fill:#fff"/></g><g><path d="M20.47,140.51a7,7,0,0,1,1.71,2.19,6.31,6.31,0,0,1,.68,2.92A7.37,7.37,0,0,1,20,151.77Q17.13,154,11.54,154a24.71,24.71,0,0,1-5.32-.59A28.5,28.5,0,0,1,1.49,152v-6.6a29.91,29.91,0,0,0,4.68,1.57,18.67,18.67,0,0,0,4.6.61,4.28,4.28,0,0,0,2.24-.46,2.69,2.69,0,0,0,1.2-2.09,3,3,0,0,0-3-3h-3v-5.36h2.38c1.6,0,4.62-.64,4.62-2.64s-2.4-3-4-3a12.88,12.88,0,0,0-5,1,15.45,15.45,0,0,0-4,2v-6a16.75,16.75,0,0,1,4-1.93,20.66,20.66,0,0,1,5.71-.8q5,0,7.72,2.06a7,7,0,0,1,2.69,5.85,6.32,6.32,0,0,1-1.13,3.87,7.26,7.26,0,0,1-2.87,2.3A5.32,5.32,0,0,1,20.47,140.51Z" style="fill:url(#Безымянный_градиент_69-2)"/><path d="M20.47,143.51a7,7,0,0,1,1.71,2.19,6.31,6.31,0,0,1,.68,2.92A7.37,7.37,0,0,1,20,154.77Q17.13,157,11.54,157a24.71,24.71,0,0,1-5.32-.59A28.5,28.5,0,0,1,1.49,155v-6.6a29.91,29.91,0,0,0,4.68,1.57,18.67,18.67,0,0,0,4.6.61,4.28,4.28,0,0,0,2.24-.46,2.69,2.69,0,0,0,1.2-2.09,3,3,0,0,0-3-3h-3v-5.36h2.38c1.6,0,4.62-.64,4.62-2.64s-2.4-3-4-3a12.88,12.88,0,0,0-5,1,15.45,15.45,0,0,0-4,2v-6a16.75,16.75,0,0,1,4-1.93,20.66,20.66,0,0,1,5.71-.8q5,0,7.72,2.06a7,7,0,0,1,2.69,5.85,6.32,6.32,0,0,1-1.13,3.87,7.26,7.26,0,0,1-2.87,2.3A5.32,5.32,0,0,1,20.47,143.51Z" style="fill:url(#Безымянный_градиент_49-3)"/><path d="M11.9,129.07c3.15,0,5.59.64,7.23,1.9a6.13,6.13,0,0,1,2.38,5.21,5.58,5.58,0,0,1-1,3.39A6.5,6.5,0,0,1,18,141.62l-2.1.94,2.23.56a4.75,4.75,0,0,1,1.85,1,6.28,6.28,0,0,1,1.51,1.94,5.58,5.58,0,0,1,.59,2.56,6.57,6.57,0,0,1-2.55,5.52c-1.75,1.37-4.44,2.06-8,2.06a23.61,23.61,0,0,1-5.14-.57,28.29,28.29,0,0,1-4.11-1.21v-4.86A33.43,33.43,0,0,0,6,150.72a19.8,19.8,0,0,0,4.8.63,5,5,0,0,0,2.68-.59A3.5,3.5,0,0,0,15,148a3.74,3.74,0,0,0-3.84-3.8H9v-3.76h1.58c2.18,0,5.42-.92,5.42-3.44s-2.87-3.8-4.8-3.8a13.59,13.59,0,0,0-5.26,1A16.87,16.87,0,0,0,3,135.55v-4.07l.81-.47a9.23,9.23,0,0,1,2.59-1.17,20.27,20.27,0,0,1,5.49-.77m0-.8a20.66,20.66,0,0,0-5.71.8,16.75,16.75,0,0,0-4,1.93v6a15.45,15.45,0,0,1,4-2,12.88,12.88,0,0,1,5-1c1.6,0,4,1,4,3s-3,2.64-4.62,2.64H8.21V145h3a3,3,0,0,1,3,3,2.69,2.69,0,0,1-1.2,2.09,4.28,4.28,0,0,1-2.24.46,18.67,18.67,0,0,1-4.6-.61,29.91,29.91,0,0,1-4.68-1.57V155a28.5,28.5,0,0,0,4.73,1.44,24.71,24.71,0,0,0,5.32.59q5.59,0,8.46-2.23a7.37,7.37,0,0,0,2.86-6.15,6.31,6.31,0,0,0-.68-2.92,7,7,0,0,0-1.71-2.19,5.32,5.32,0,0,0-2.16-1.16,7.26,7.26,0,0,0,2.87-2.3,6.32,6.32,0,0,0,1.13-3.87,7,7,0,0,0-2.69-5.85q-2.7-2.06-7.72-2.06Z" style="fill:#fff"/></g><g><path d="M1.44,109.24c0-.24,13-9.24,13-14.24a3.67,3.67,0,0,0-1-3c-1.41-1.41-4-1-7,0a32.94,32.94,0,0,0-4,2V87a24.27,24.27,0,0,1,10-2c3.07,0,6,1,7.67,2.93A8.12,8.12,0,0,1,22.44,94c0,2.41-2,7-6,10-.86.64-5,4-5,4H22.91v4H1.44Z" style="fill:url(#Безымянный_градиент_69-3)"/><path d="M1.44,112.24c0-.24,13-9.24,13-14.24a3.67,3.67,0,0,0-1-3c-1.41-1.41-4-1-7,0a32.94,32.94,0,0,0-4,2V90a24.27,24.27,0,0,1,10-2c3.07,0,6,1,7.67,2.93A8.12,8.12,0,0,1,22.44,97c0,2.41-2,7-6,10-.86.64-5,4-5,4H22.91v4H1.44Z" style="fill:url(#Безымянный_градиент_49-4)"/><path d="M12.44,88.8c3,0,5.63,1,7.06,2.66A7.29,7.29,0,0,1,21.64,97c0,2.06-1.81,6.45-5.68,9.36-.86.65-4.85,3.88-5,4L9.18,111.8H22.11v2.45H2.24V112.6L3,112c5.7-4.42,12.24-10,12.24-14A4.48,4.48,0,0,0,14,94.43a4.33,4.33,0,0,0-3.18-1.14,15.07,15.07,0,0,0-4.64.95,22,22,0,0,0-2.95,1.4V90.52a24.53,24.53,0,0,1,9.2-1.72m0-.8a24.27,24.27,0,0,0-10,2v7a32.94,32.94,0,0,1,4-2,14.76,14.76,0,0,1,4.39-.91,3.52,3.52,0,0,1,2.61.91,3.67,3.67,0,0,1,1,3c0,5-13,14-13,14.24v2.81H22.91v-4H11.44s4.14-3.36,5-4c4-3,6-7.59,6-10a8.12,8.12,0,0,0-2.33-6.07C18.44,89,15.51,88,12.44,88Z" style="fill:#fff"/></g><g><path d="M13.11,192v-6H.27v-5.36l12.51-16h8.14V181h3.16v5H20.92v6ZM6.44,181h6.67v-8Z" style="fill:url(#Безымянный_градиент_69-4)"/><path d="M13.11,196v-6H.27v-5.36l12.51-16h8.14V185h3.16v5H20.92v6ZM6.44,185h6.67v-8Z" style="fill:url(#Безымянный_градиент_49-5)"/><path d="M20.12,169.43V185.8h3.16v3.37H20.12v6H13.91v-6H1.07v-4.29l12.1-15.45h7M4.73,185.8h9.18v-11l-1.42,1.7-6.67,8L4.73,185.8m16.19-17.17H12.78l-12.51,16V190H13.11v6h7.81v-6h3.16v-5H20.92V168.63ZM6.44,185l6.67-8v8Z" style="fill:#fff"/></g><g><path d="M20.58,216.43a9,9,0,0,1,2.12,6.31A9.8,9.8,0,0,1,21.31,228a9,9,0,0,1-4.12,3.48c-1.82.83-3,1.24-6.61,1.24a27.76,27.76,0,0,1-8.93-2V225c3.12,1.43,5,2,7.55,2,1.32,0,5,0,5-4,0-3-3.16-3-4-3h-8V204.8h19V211H9.2v3c1.21,0,3.11.1,5.23.1A7.92,7.92,0,0,1,20.58,216.43Z" style="fill:url(#Безымянный_градиент_69-5)"/><path d="M20.58,219.43a9,9,0,0,1,2.12,6.31A9.8,9.8,0,0,1,21.31,231a9,9,0,0,1-4.12,3.48c-1.82.83-3,1.24-6.61,1.24a27.76,27.76,0,0,1-8.93-2V228c3.12,1.43,5,2,7.55,2,1.32,0,5,0,5-4,0-3-3.16-3-4-3h-8V207.8h19V214H9.2v3c1.21,0,3.11.1,5.23.1A7.92,7.92,0,0,1,20.58,219.43Z" style="fill:url(#Безымянный_градиент_49-6)"/><path d="M20.4,208.6v4.6H8.4v4.6h.8c.51,0,1.16,0,1.89,0,1,0,2.12.06,3.34.06A7.1,7.1,0,0,1,20,220a8.31,8.31,0,0,1,1.91,5.77,9.11,9.11,0,0,1-1.27,4.83,8.23,8.23,0,0,1-3.76,3.17c-1.7.77-2.75,1.17-6.29,1.17a26.27,26.27,0,0,1-8.13-1.75v-3.93A15.75,15.75,0,0,0,9.2,230.8c3.85,0,5.8-1.61,5.8-4.8,0-1.42-.62-3.8-4.8-3.8H3V208.6H20.4m.8-.8H2.2V223h8c.84,0,4,0,4,3,0,4-3.68,4-5,4-2.54,0-4.43-.57-7.55-2v5.7a27.76,27.76,0,0,0,8.93,2c3.62,0,4.79-.41,6.61-1.24A9,9,0,0,0,21.31,231a9.8,9.8,0,0,0,1.39-5.25,9,9,0,0,0-2.12-6.31,7.92,7.92,0,0,0-6.15-2.33c-2.12,0-4-.1-5.23-.1v-3h12v-6.2Z" style="fill:#fff"/></g><g><path d="M23.67,265.16a9.54,9.54,0,0,1-3.34,7.19q-2.79,2.52-7.86,2.52a11.2,11.2,0,0,1-8.8-4.31c-1.91-2.36-3-4.32-3-9.72s1.75-9.38,4-11.87a11.18,11.18,0,0,1,8.9-4,21.69,21.69,0,0,1,4.54.46,11.68,11.68,0,0,1,3.37,1.21v6.4a14.36,14.36,0,0,0-2.91-1,14.88,14.88,0,0,0-3.47-.39,6.32,6.32,0,0,0-6.43,5.93s1-2.16,6-2.16S23.67,258.68,23.67,265.16Zm-7,0c0-5.4-5-5.4-7-3.24s-1,7.56,2.93,7.56C14.67,269.48,16.67,268.4,16.67,265.16Z" style="fill:url(#Безымянный_градиент_69-6)"/><path d="M23.67,268.29a9.54,9.54,0,0,1-3.34,7.19Q17.54,278,12.47,278a11.2,11.2,0,0,1-8.8-4.31c-1.91-2.36-3-4.32-3-9.72s1.75-9.38,4-11.88a11.2,11.2,0,0,1,8.9-4,21,21,0,0,1,4.54.46,12,12,0,0,1,3.37,1.2v6.41a13.78,13.78,0,0,0-2.91-1,14.88,14.88,0,0,0-3.47-.39,6.33,6.33,0,0,0-6.43,5.94s1-2.16,6-2.16S23.67,261.81,23.67,268.29Zm-7,0c0-5.4-5-5.4-7-3.24s-1,7.56,2.93,7.56C14.67,272.61,16.67,271.53,16.67,268.29Z" style="fill:url(#Безымянный_градиент_49-7)"/><path d="M13.57,249a20.08,20.08,0,0,1,4.37.45,12.41,12.41,0,0,1,2.74.89V255a16.24,16.24,0,0,0-1.93-.58A15.88,15.88,0,0,0,15.1,254a7.11,7.11,0,0,0-7.23,6.77.83.83,0,0,0,.62.82.58.58,0,0,0,.19,0,.76.76,0,0,0,.7-.47s1-1.71,5.29-1.71c4,0,8.2,2.34,8.2,8.89a8.6,8.6,0,0,1-3.07,6.56c-1.7,1.54-4.16,2.32-7.33,2.32a10.47,10.47,0,0,1-8.18-4c-1.7-2.09-2.82-3.86-2.82-9.18,0-6.2,2.37-9.75,3.79-11.31a10.39,10.39,0,0,1,8.31-3.7m-1,24.48c3.05,0,4.87-1.92,4.87-5.15,0-4-2.47-5.42-4.59-5.42a5.22,5.22,0,0,0-3.78,1.6,5.89,5.89,0,0,0-.76,6,4.5,4.5,0,0,0,4.26,3m1-25.31a11.2,11.2,0,0,0-8.9,4c-2.25,2.5-4,6.54-4,11.88s1.09,7.36,3,9.72a11.2,11.2,0,0,0,8.8,4.31q5.07,0,7.86-2.52a9.54,9.54,0,0,0,3.34-7.19c0-6.48-4-9.72-9-9.72s-6,2.16-6,2.16a6.33,6.33,0,0,1,6.43-5.94,14.88,14.88,0,0,1,3.47.39,13.78,13.78,0,0,1,2.91,1v-6.41a12,12,0,0,0-3.37-1.2,21,21,0,0,0-4.54-.46Zm-1,24.48c-3.93,0-4.93-5.4-2.93-7.56a4.47,4.47,0,0,1,3.21-1.35c1.92,0,3.79,1.28,3.79,4.59s-2,4.32-4.07,4.32Z" style="fill:#f2f2f2"/></g><g><path d="M13.21,293H1.14v-7H23.21v7a64.85,64.85,0,0,0-4,7c-1.22,2.45-7,13-6.56,12.78L3.21,316,3,312.78C3.21,313,11.89,294.7,13.21,293Z" style="fill:url(#Безымянный_градиент_69-7)"/><path d="M13.21,296H1.14v-7H23.21v7a64.85,64.85,0,0,0-4,7c-1.22,2.45-7.44,13.22-7,13h-9C3.45,316.22,11.89,297.7,13.21,296Z" style="fill:url(#Безымянный_градиент_49-8)"/><path d="M22.41,289.8v5.95a66.74,66.74,0,0,0-3.92,6.89c-.48,1-1.76,3.28-3.12,5.72-2.21,4-3.27,5.86-3.71,6.84H4.59c.57-1.12,1.54-3.12,3.28-6.76,2.24-4.68,5.3-11.09,6-11.95l1-1.29H1.94v-5.4H22.41m.8-.8H1.14v7H13.21c-1.31,1.68-9.56,19.78-10,20h9c-.17-.21,5.83-10.6,7-13a64.85,64.85,0,0,1,4-7v-7Zm-11,27h0Zm-9,0h0Z" style="fill:#f2f2f2"/></g><g><path d="M22.17,340.18a6.7,6.7,0,0,1,1.35,4.36,7,7,0,0,1-2.89,6.09q-2.88,2.07-8.46,2.07t-8.45-2a7.62,7.62,0,0,1-1.44-10.45,8.09,8.09,0,0,1,3.45-2.43,6.87,6.87,0,0,1-3-2.19,6,6,0,0,1-1.21-3.89A6.69,6.69,0,0,1,4.25,326q2.69-2,7.92-2t7.88,2a6.7,6.7,0,0,1,2.67,5.77,6.58,6.58,0,0,1-1.07,3.91,6.12,6.12,0,0,1-2.7,2.17A7.8,7.8,0,0,1,22.17,340.18Zm-7.39,3.33a3.18,3.18,0,0,0-.67-2.17,2.47,2.47,0,0,0-1.94-.75,2.44,2.44,0,0,0-1.93.75,3.13,3.13,0,0,0-.67,2.17c0,1.9.87,2.85,2.6,2.85S14.78,345.41,14.78,343.51ZM9.91,332.83c0,1.57.75,2.35,2.26,2.35s2.27-.78,2.27-2.35-.75-2.49-2.27-2.49S9.91,331.17,9.91,332.83Z" style="fill:url(#Безымянный_градиент_69-8)"/><path d="M22.17,343.22a6.68,6.68,0,0,1,1.35,4.36,7,7,0,0,1-2.89,6.09q-2.88,2.07-8.46,2.07c-3.71,0-6.53-.68-8.45-2a7.62,7.62,0,0,1-1.44-10.45,8.06,8.06,0,0,1,3.45-2.42,6.87,6.87,0,0,1-3-2.19,6,6,0,0,1-1.21-3.89A6.69,6.69,0,0,1,4.25,329q2.69-2,7.92-2t7.88,2a6.7,6.7,0,0,1,2.67,5.77,6.6,6.6,0,0,1-1.07,3.91,6.12,6.12,0,0,1-2.7,2.17A7.8,7.8,0,0,1,22.17,343.22Zm-7.39,3.33a3.18,3.18,0,0,0-.67-2.17,2.47,2.47,0,0,0-1.94-.75,2.44,2.44,0,0,0-1.93.75,3.13,3.13,0,0,0-.67,2.17c0,1.9.87,2.85,2.6,2.85S14.78,348.45,14.78,346.55ZM9.91,335.87c0,1.57.75,2.35,2.26,2.35s2.27-.78,2.27-2.35-.75-2.49-2.27-2.49S9.91,334.21,9.91,335.87Z" style="fill:url(#Безымянный_градиент_61)"/><path d="M12.17,327.87c3.29,0,5.78.6,7.41,1.8a5.87,5.87,0,0,1,2.34,5.1,5.77,5.77,0,0,1-.92,3.42,5.3,5.3,0,0,1-2.35,1.9l-.74.43.76,1.11a6.83,6.83,0,0,1,2.88,2.12,5.88,5.88,0,0,1,1.17,3.83A6.16,6.16,0,0,1,20.18,353c-1.78,1.27-4.48,1.92-8,1.92s-6.23-.63-8-1.87a6.8,6.8,0,0,1-1.28-9.22A7.33,7.33,0,0,1,6,341.63l.91-1.11-.9-.44a6.06,6.06,0,0,1-2.63-1.94,5.25,5.25,0,0,1-1-3.37,5.86,5.86,0,0,1,2.35-5.1c1.65-1.2,4.16-1.8,7.46-1.8m0,11.18a2.85,2.85,0,0,0,3.07-3.18c0-2.11-1.12-3.32-3.07-3.32s-3.06,1.21-3.06,3.32a2.84,2.84,0,0,0,3.06,3.18m0,11.17c2.2,0,3.41-1.3,3.41-3.67a4,4,0,0,0-.88-2.73,3.24,3.24,0,0,0-2.53-1,3.23,3.23,0,0,0-2.52,1,4,4,0,0,0-.88,2.73c0,2.37,1.21,3.67,3.4,3.67m0-23.18q-5.23,0-7.92,2a6.69,6.69,0,0,0-2.69,5.77,6,6,0,0,0,1.21,3.89,6.87,6.87,0,0,0,3,2.19,8.06,8.06,0,0,0-3.45,2.42,7.62,7.62,0,0,0,1.44,10.45c1.92,1.34,4.74,2,8.45,2s6.54-.69,8.46-2.07a7,7,0,0,0,2.89-6.09,6.68,6.68,0,0,0-1.35-4.36A7.8,7.8,0,0,0,19,340.85a6.12,6.12,0,0,0,2.7-2.17,6.6,6.6,0,0,0,1.07-3.91A6.7,6.7,0,0,0,20.05,329q-2.67-2-7.88-2Zm0,11.18c-1.51,0-2.26-.78-2.26-2.35s.75-2.49,2.26-2.49,2.27.83,2.27,2.49-.75,2.35-2.27,2.35Zm0,11.18c-1.73,0-2.6-.95-2.6-2.85a3.13,3.13,0,0,1,.67-2.17,2.44,2.44,0,0,1,1.93-.75,2.47,2.47,0,0,1,1.94.75,3.18,3.18,0,0,1,.67,2.17q0,2.85-2.61,2.85Z" style="fill:#f2f2f2"/></g><g><path d="M20.4,368.35q2.89,3.36,2.9,10.27,0,7.58-3.39,11.12t-9.32,3.55a22.42,22.42,0,0,1-4.54-.44,12.81,12.81,0,0,1-3.37-1.14v-7.09a13.61,13.61,0,0,0,2.91,1,15.36,15.36,0,0,0,3.46.37q4.79,0,4.78-3.72v-.38a12.12,12.12,0,0,1-4.61.87,8,8,0,0,1-6-2.19,8.38,8.38,0,0,1-2.15-6.12c0-3.12.91-5.46,2.73-7S8.2,365,11.56,365Q17.5,365,20.4,368.35ZM9.87,376.44a2.12,2.12,0,0,0,1.79.77,5.41,5.41,0,0,0,2.17-.45V374a3,3,0,0,0-.57-2.05,2.12,2.12,0,0,0-1.7-.65,2,2,0,0,0-1.7.73,3.73,3.73,0,0,0-.57,2.28A3.54,3.54,0,0,0,9.87,376.44Z" style="fill:url(#Безымянный_градиент_69-9)"/><path d="M20.4,371.57q2.89,3.36,2.9,10.27,0,7.57-3.39,11.12t-9.32,3.55a22.42,22.42,0,0,1-4.54-.44,12.12,12.12,0,0,1-3.37-1.14v-7.09a13.61,13.61,0,0,0,2.91,1,15.36,15.36,0,0,0,3.46.37q4.79,0,4.78-3.72v-.38a12.12,12.12,0,0,1-4.61.87,8,8,0,0,1-6-2.19,8.38,8.38,0,0,1-2.15-6.12q0-4.67,2.73-7t7.78-2.37Q17.5,368.22,20.4,371.57ZM9.87,379.66a2.09,2.09,0,0,0,1.79.77,5.41,5.41,0,0,0,2.17-.45v-2.81a3.06,3.06,0,0,0-.57-2.05,2.16,2.16,0,0,0-1.7-.65,2,2,0,0,0-1.7.74,3.71,3.71,0,0,0-.57,2.28A3.52,3.52,0,0,0,9.87,379.66Z" style="fill:url(#Безымянный_градиент_49-9)"/><path d="M11.56,369.08c3.71,0,6.48,1,8.25,3.08s2.69,5.31,2.69,9.68c0,4.79-1.06,8.32-3.14,10.51s-5,3.3-8.77,3.3a21.57,21.57,0,0,1-4.38-.42,12.63,12.63,0,0,1-2.73-.85v-5.29a16.77,16.77,0,0,0,5.57.94c4.61,0,5.58-2.49,5.58-4.58v-1.63l-1.09.44a11.23,11.23,0,0,1-4.32.83,7.36,7.36,0,0,1-5.47-2,7.48,7.48,0,0,1-1.9-5.5c0-2.87.8-4.95,2.44-6.37s4.11-2.18,7.27-2.18m.1,12.21a6,6,0,0,0,2.47-.52l.5-.22v-3.38a3.94,3.94,0,0,0-.79-2.64,2.87,2.87,0,0,0-2.28-.92,2.74,2.74,0,0,0-2.32,1.05,5.48,5.48,0,0,0,0,5.55,2.86,2.86,0,0,0,2.41,1.08m-.1-13.07q-5,0-7.78,2.37t-2.73,7a8.38,8.38,0,0,0,2.15,6.12,8,8,0,0,0,6,2.19,12.12,12.12,0,0,0,4.61-.87v.38q0,3.72-4.78,3.72a15.36,15.36,0,0,1-3.46-.37,13.61,13.61,0,0,1-2.91-1v7.09a12.12,12.12,0,0,0,3.37,1.14,22.42,22.42,0,0,0,4.54.44q5.94,0,9.32-3.55t3.39-11.12q0-6.91-2.9-10.27t-8.84-3.35Zm.1,12.21a2.09,2.09,0,0,1-1.79-.77,3.52,3.52,0,0,1-.58-2.17,3.71,3.71,0,0,1,.57-2.28,2,2,0,0,1,1.7-.74,2.16,2.16,0,0,1,1.7.65,3.06,3.06,0,0,1,.57,2.05V380a5.41,5.41,0,0,1-2.17.45Z" style="fill:#fff"/></g></svg>