<svg xmlns="http://www.w3.org/2000/svg" width="26" height="26" viewBox="0 0 26 26" fill="none"><path d="M10.5625 16.25C10.5597 16.4646 10.4732 16.6697 10.3214 16.8214C10.1697 16.9732 9.96462 17.0597 9.75 17.0625H6.5C6.28451 17.0625 6.07785 16.9769 5.92548 16.8245C5.7731 16.6722 5.6875 16.4655 5.6875 16.25C5.6875 16.0345 5.7731 15.8279 5.92548 15.6755C6.07785 15.5231 6.28451 15.4375 6.5 15.4375H9.75C9.96462 15.4403 10.1697 15.5268 10.3214 15.6786C10.4732 15.8303 10.5597 16.0354 10.5625 16.25ZM6.5 12.7292H13C13.2155 12.7292 13.4222 12.6436 13.5745 12.4912C13.7269 12.3388 13.8125 12.1322 13.8125 11.9167C13.8125 11.7012 13.7269 11.4945 13.5745 11.3421C13.4222 11.1898 13.2155 11.1042 13 11.1042H6.5C6.28451 11.1042 6.07785 11.1898 5.92548 11.3421C5.7731 11.4945 5.6875 11.7012 5.6875 11.9167C5.6875 12.1322 5.7731 12.3388 5.92548 12.4912C6.07785 12.6436 6.28451 12.7292 6.5 12.7292ZM6.5 8.39583H15.1667C15.3822 8.39583 15.5888 8.31023 15.7412 8.15786C15.8936 8.00548 15.9792 7.79882 15.9792 7.58333C15.9792 7.36785 15.8936 7.16118 15.7412 7.00881C15.5888 6.85644 15.3822 6.77083 15.1667 6.77083H6.5C6.28451 6.77083 6.07785 6.85644 5.92548 7.00881C5.7731 7.16118 5.6875 7.36785 5.6875 7.58333C5.6875 7.79882 5.7731 8.00548 5.92548 8.15786C6.07785 8.31023 6.28451 8.39583 6.5 8.39583ZM22.5767 14.2458L19.2292 17.5933V21.6667C19.2263 22.1686 19.0257 22.6492 18.6707 23.0041C18.3158 23.359 17.8353 23.5597 17.3333 23.5625H4.33333C3.8314 23.5597 3.35084 23.359 2.99592 23.0041C2.641 22.6492 2.44034 22.1686 2.4375 21.6667V4.33333C2.44034 3.8314 2.641 3.35084 2.99592 2.99592C3.35084 2.641 3.8314 2.44034 4.33333 2.4375H17.3333C17.8353 2.44034 18.3158 2.641 18.6707 2.99592C19.0257 3.35084 19.2263 3.8314 19.2292 4.33333V9.44667C19.7826 9.20321 20.3958 9.12884 20.9914 9.23293C21.587 9.33702 22.1386 9.61492 22.5767 10.0317C22.8548 10.3076 23.0755 10.6358 23.2261 10.9975C23.3767 11.3591 23.4543 11.747 23.4543 12.1388C23.4543 12.5305 23.3767 12.9184 23.2261 13.28C23.0755 13.6417 22.8548 13.9699 22.5767 14.2458ZM17.6042 19.2183L16.6833 20.1392C16.4193 20.4026 16.0843 20.5833 15.7192 20.6592L13.8017 21.0383C13.6755 21.049 13.5487 21.049 13.4225 21.0383C13.1749 21.0388 12.9297 20.9902 12.701 20.8954C12.4723 20.8006 12.2646 20.6614 12.09 20.4858C11.8659 20.2676 11.7006 19.9962 11.6097 19.6969C11.5188 19.3976 11.5051 19.0802 11.57 18.7742L11.9167 16.8892C11.9926 16.5241 12.1733 16.189 12.4367 15.925L17.6042 10.8333V4.33333C17.6042 4.2615 17.5756 4.19262 17.5248 4.14183C17.4741 4.09103 17.4052 4.0625 17.3333 4.0625H4.33333C4.2615 4.0625 4.19262 4.09103 4.14183 4.14183C4.09103 4.19262 4.0625 4.2615 4.0625 4.33333V21.6667C4.0625 21.7385 4.09103 21.8074 4.14183 21.8582C4.19262 21.909 4.2615 21.9375 4.33333 21.9375H17.3333C17.4052 21.9375 17.4741 21.909 17.5248 21.8582C17.5756 21.8074 17.6042 21.7385 17.6042 21.6667V19.2183ZM21.4283 11.18C21.3001 11.0623 21.1499 10.9711 20.9863 10.9116C20.8226 10.8521 20.6489 10.8255 20.475 10.8333C20.2957 10.8324 20.118 10.8674 19.9524 10.9362C19.7868 11.0051 19.6367 11.1064 19.5108 11.2342L13.6175 17.1275C13.5796 17.1665 13.5534 17.2153 13.5417 17.2683L13.1625 19.1858C13.1541 19.2287 13.1566 19.2731 13.1699 19.3147C13.1831 19.3564 13.2067 19.394 13.2383 19.4242C13.2679 19.4567 13.3054 19.4808 13.3473 19.4942C13.3892 19.5075 13.4338 19.5095 13.4767 19.5L15.3942 19.1208C15.4462 19.1065 15.4944 19.0806 15.535 19.045L21.4283 13.1408C21.5625 13.0152 21.6694 12.8633 21.7425 12.6947C21.8156 12.5261 21.8533 12.3442 21.8533 12.1604C21.8533 11.9766 21.8156 11.7948 21.7425 11.6261C21.6694 11.4575 21.5625 11.3057 21.4283 11.18Z" fill="#1C1C1C"/></svg>