<svg xmlns="http://www.w3.org/2000/svg" width="27" height="26" viewBox="0 0 27 26" fill="none"><g clip-path="url(#clip0_1855_8223)"><path d="M22.5 3.96429V22.0357C22.5 22.5567 22.293 23.0563 21.9247 23.4247C21.5563 23.793 21.0567 24 20.5357 24H10.3214C9.80047 24 9.30084 23.793 8.93247 23.4247C8.56409 23.0563 8.35714 22.5567 8.35714 22.0357V18.5C8.35714 18.2916 8.43992 18.0918 8.58727 17.9444C8.73462 17.7971 8.93447 17.7143 9.14286 17.7143C9.35124 17.7143 9.55109 17.7971 9.69844 17.9444C9.84579 18.0918 9.92857 18.2916 9.92857 18.5V22.0357C9.92857 22.1399 9.96996 22.2398 10.0436 22.3135C10.1173 22.3872 10.2172 22.4286 10.3214 22.4286H20.5357C20.6399 22.4286 20.7398 22.3872 20.8135 22.3135C20.8872 22.2398 20.9286 22.1399 20.9286 22.0357V3.96429C20.9286 3.86009 20.8872 3.76017 20.8135 3.68649C20.7398 3.61282 20.6399 3.57143 20.5357 3.57143H10.3214C10.2172 3.57143 10.1173 3.61282 10.0436 3.68649C9.96996 3.76017 9.92857 3.86009 9.92857 3.96429V7.5C9.92857 7.70838 9.84579 7.90823 9.69844 8.05558C9.55109 8.20293 9.35124 8.28571 9.14286 8.28571C8.93447 8.28571 8.73462 8.20293 8.58727 8.05558C8.43992 7.90823 8.35714 7.70838 8.35714 7.5V3.96429C8.35714 3.44332 8.56409 2.9437 8.93247 2.57533C9.30084 2.20695 9.80047 2 10.3214 2H20.5357C21.0567 2 21.5563 2.20695 21.9247 2.57533C22.293 2.9437 22.5 3.44332 22.5 3.96429ZM12.1443 16.3314C11.9963 16.4783 11.9128 16.678 11.9121 16.8865C11.9113 17.095 11.9934 17.2953 12.1404 17.4432C12.2873 17.5912 12.4869 17.6747 12.6954 17.6754C12.9039 17.6762 13.1042 17.5941 13.2521 17.4471L17.1414 13.5579C17.2151 13.4848 17.2735 13.3979 17.3134 13.3022C17.3533 13.2064 17.3738 13.1037 17.3738 13C17.3738 12.8963 17.3533 12.7936 17.3134 12.6978C17.2735 12.6021 17.2151 12.5152 17.1414 12.4421L13.2521 8.55286C13.1049 8.40652 12.9058 8.32438 12.6982 8.32438C12.4906 8.32438 12.2915 8.40652 12.1443 8.55286C12.0706 8.6259 12.0122 8.7128 11.9723 8.80855C11.9324 8.90429 11.9119 9.00699 11.9119 9.11071C11.9119 9.21444 11.9324 9.31714 11.9723 9.41288C12.0122 9.50863 12.0706 9.59553 12.1443 9.66857L14.69 12.2143H1.28571C1.07733 12.2143 0.87748 12.2971 0.73013 12.4444C0.58278 12.5918 0.5 12.7916 0.5 13C0.5 13.2084 0.58278 13.4082 0.73013 13.5556C0.87748 13.7029 1.07733 13.7857 1.28571 13.7857H14.69L12.1443 16.3314Z" fill="#1C1C1C"/></g><defs><clipPath id="clip0_1855_8223"><rect width="26" height="26" fill="white" transform="translate(0.5)"/></clipPath></defs></svg>