<svg width="60" height="60" viewBox="0 0 60 60" fill="none" xmlns="http://www.w3.org/2000/svg">
<path d="M54.4222 7.81736C52.7616 5.24774 49.4403 3.44726 44.2311 2.32851C40.2281 1.45449 35.2112 1 29.6874 1C24.1811 1 19.1467 1.45449 15.1612 2.32851C9.96951 3.46474 6.63075 5.24774 4.98759 7.81736C2.26065 12.0301 2.90742 18.1658 3.62412 25.2803C3.76396 26.5913 3.9038 27.9373 4.00869 29.2483C4.23593 31.8704 4.76034 37.0446 5.72177 42.0265C7.1202 49.2809 8.62351 51.833 9.63738 53.1266C13.955 58.5805 26.0864 59 29.7049 59C33.3233 59 45.4547 58.5805 49.7724 53.1266C50.7863 51.833 52.3071 49.2984 53.688 42.0265C54.6494 37.0271 55.1739 31.8704 55.4011 29.2483C55.506 27.9373 55.6458 26.5913 55.7857 25.2803C56.5024 18.1658 57.1317 12.0127 54.4222 7.81736ZM53.7754 25.0705C53.6356 26.3816 53.4957 27.745 53.3909 29.0735C53.1636 31.6606 52.6567 36.7474 51.7127 41.6594C50.4017 48.4943 49.0732 50.7667 48.1817 51.8855C44.336 56.7625 32.0997 57.0072 29.6874 57.0072C27.2751 57.0072 15.0388 56.7625 11.1931 51.8855C10.3016 50.7667 8.97312 48.4768 7.66209 41.6594C6.71815 36.7474 6.21122 31.6781 5.98397 29.0735C5.86161 27.745 5.73925 26.3816 5.5994 25.0705C4.90019 18.3231 4.30585 12.5021 6.64823 8.88367C8.0117 6.78602 10.9309 5.26522 15.5807 4.26884C19.4439 3.42978 24.3209 2.99277 29.6874 2.99277C35.0539 2.99277 39.9309 3.42978 43.7941 4.26884C48.4439 5.2827 51.3631 6.78602 52.7266 8.88367C55.069 12.5196 54.4746 18.3406 53.7754 25.0705ZM29.7049 5.85955C40.0708 5.85955 48.4789 7.57263 50.3493 10.4569C52.5343 13.8481 51.2058 21.4171 50.559 28.8463C49.9122 36.2755 48.3565 47.0784 45.9617 50.1374C43.864 52.7945 36.3649 54.1579 29.7049 54.1579C23.0623 54.1579 15.5458 52.777 13.4481 50.1374C11.0358 47.0958 9.48005 36.2755 8.85076 28.8463C8.22146 21.4171 6.87547 13.8481 9.06053 10.4569C10.9309 7.57263 19.339 5.85955 29.7049 5.85955ZM14.4095 16.173C14.1298 16.3303 14.0075 16.8373 14.0075 16.8373L13.7103 18.1483C13.7103 18.1483 13.6054 18.4804 13.7977 18.8825C14.0075 19.2845 15.3185 19.5292 15.3185 19.5292C15.3185 19.5292 17.6084 19.8788 18.5349 21.0151C19.4614 22.1513 19.0943 23.7071 19.0943 23.7071L16.5946 35.9608C16.5946 35.9608 16.3499 37.1495 15.7206 37.7263C15.1087 38.2857 14.0949 38.3207 14.0949 38.3207C14.0949 38.3207 13.5006 38.3382 13.116 38.4955C12.7839 38.6353 12.679 39.1772 12.679 39.1772L12.5216 39.9813C12.5216 39.9813 12.4342 40.3134 12.6265 40.6106C12.8188 40.9078 13.3607 40.9777 13.3607 40.9777L25.999 41.0651C25.999 41.0651 26.3836 41.0476 26.5934 40.8379C26.8031 40.6281 26.8556 40.1911 26.8556 40.1911L27.0653 39.0374C27.0653 39.0374 27.1528 38.6878 26.9779 38.478C26.7682 38.2333 26.5934 38.2508 26.0165 38.1109C25.4222 37.9711 25.0726 37.7963 24.4957 37.3243C23.779 36.73 24.0238 35.5937 24.0238 35.5937L25.125 29.4581C25.125 29.4581 25.2649 29.0036 25.562 29.0211C25.999 29.0386 26.1389 29.4406 26.1389 29.4406L32.1696 40.226C32.1696 40.226 32.3794 40.5931 32.694 40.8379C33.0087 41.0826 33.7254 41.1001 33.7254 41.1001L43.899 41.0127C43.899 41.0127 44.4059 41.0301 44.6856 40.8029C45.0177 40.5232 45.1051 40.0862 45.1051 40.0862L45.2974 39.1947C45.2974 39.1947 45.4373 38.7752 45.245 38.3731C45.0177 37.9011 44.1437 37.7963 43.1473 37.4991C42.4132 37.2719 41.4517 36.7474 41.1196 36.258C40.8924 35.9084 41.1196 35.1917 41.1196 35.1917L44.5108 21.2423C44.5108 21.2423 44.6157 20.6655 45.1925 20.0711C45.7169 19.5292 47.1503 19.2321 47.1503 19.2321C47.1503 19.2321 47.5174 19.1621 47.7447 18.9524C47.902 18.7951 47.9719 18.4629 47.9719 18.4629L48.3565 16.9596C48.3565 16.9596 48.4614 16.575 48.2341 16.3128C48.0418 16.0856 47.5 16.0856 47.5 16.0856H35.8755C35.8755 16.0856 35.4909 16.0681 35.1238 16.3653C34.7917 16.645 34.7393 16.9247 34.7393 16.9247L34.4596 18.1832C34.4596 18.1832 34.3722 18.4979 34.477 18.7426C34.6169 19.0573 34.9315 19.0747 34.9315 19.0747L35.421 19.1621C35.421 19.1621 36.33 19.337 36.8019 19.8089C37.2739 20.2809 37.0467 21.5045 37.0467 21.5045L35.3511 29.6329L29.198 17.9036C29.198 17.9036 29.0232 17.3617 28.3414 16.6974C27.6772 16.0332 26.6458 16.0856 26.6458 16.0856H15.1612C15.1787 15.9982 14.6892 16.0157 14.4095 16.173Z" fill="white"/>
</svg>
