<svg width="60" height="60" viewBox="0 0 60 60" fill="none" xmlns="http://www.w3.org/2000/svg">
<g opacity="0.9">
<path fill-rule="evenodd" clip-rule="evenodd" d="M11.5766 29.9486C11.6231 24.7354 16.5709 18.0309 25.0026 14.3651C39.8422 7.91344 48.3441 13.8611 50.5442 19.4851C52.595 24.7276 48.5385 33.9304 41.5141 40.7884C46.5279 37.2134 50.6236 33.3738 53.4648 29.643C57.2346 24.6929 58.7958 19.9342 57.3628 16.2388C55.2465 10.7816 46.9774 9.02644 36.4931 10.4977C26.0088 11.9689 17.957 14.5292 11.4897 17.7992C4.29581 21.4366 0.58313 25.758 0.0524203 30.6878C-0.718431 37.8479 6.99047 47.4707 24.6282 48.6575C33.8967 49.2811 42.787 49.489 60 45.3314C57.9498 45.3967 11.3874 51.152 11.5766 29.9486Z" fill="#A6CE39"/>
<path fill-rule="evenodd" clip-rule="evenodd" d="M28.701 38.281C30.6847 38.281 32.6239 37.6957 34.2733 36.5991C35.9227 35.5025 37.2083 33.9439 37.9675 32.1203C38.7267 30.2967 38.9253 28.29 38.5384 26.354C38.1514 24.4181 37.1962 22.6398 35.7935 21.244C34.3908 19.8482 32.6037 18.8977 30.6581 18.5126C28.7125 18.1275 26.6958 18.3251 24.8631 19.0805C23.0303 19.8358 21.4639 21.115 20.3618 22.7562C19.2597 24.3974 18.6714 26.3269 18.6714 28.3008C18.6763 30.9462 19.7346 33.4817 21.6145 35.3523C23.4943 37.2229 26.0425 38.276 28.701 38.281V38.281Z" fill="#A6CE39"/>
</g>
</svg>
