<?xml version="1.0" encoding="utf-8"?>
<!-- Generator: Adobe Illustrator 24.1.2, SVG Export Plug-In . SVG Version: 6.00 Build 0)  -->
<svg version="1.1" id="Слой_1" xmlns="http://www.w3.org/2000/svg" xmlns:xlink="http://www.w3.org/1999/xlink" x="0px" y="0px"
	 viewBox="0 0 60 60" style="enable-background:new 0 0 60 60;" xml:space="preserve">
<style type="text/css">
	.st0{fill:#F4F3F4;}
</style>
<path id="microgaming" class="st0" d="M30.1,0.1C13.5,0.1,0,13.6,0,30.1c0,3,0.4,5.9,1.3,8.7C1.8,38,2.5,37.3,3,36.5
	c2.1-3.1,4.2-6.2,6.1-9.3l1.4-2.4c0.5-0.8,1-1.5,1.4-2.4c1-1.5,1.9-3.2,2.9-4.8c0.5-0.8,0.9-1.6,1.3-2.5c0.4-0.8,0.9-1.6,1.3-2.5
	c0.4-0.8,0.9-1.6,1.2-2.5L20,7.8l0.1-0.2c0.7-1.3,2.3-1.8,3.6-1.2c1,0.5,1.6,1.6,1.5,2.8l0,0c0,1.4-0.3,2.9-0.4,4.4
	c-0.1,1.4-0.2,3-0.2,4.4c-0.1,3-0.2,5.8-0.1,8.8c0,3,0.2,5.8,0.5,8.7c0.1,1.4,0.4,2.8,0.6,4.1c0.2,1.2,0.6,2.5,1.1,3.6
	c0.2,0.3,0.4,0.7,0.7,0.9c0.2,0.1,0.1,0.1,0.1,0.1h0.1h0.1l0,0l0,0l0.2-0.1l0,0c0.1,0,0.2-0.1,0.2-0.2c0.4-0.3,0.8-0.7,1.2-1.1
	c0.9-1,1.7-2.1,2.5-3.3c0.8-1.2,1.5-2.5,2.3-3.7c1.4-2.6,2.8-5.1,4-7.8c0.6-1.3,1.2-2.7,1.8-4c0.6-1.3,1.2-2.7,1.7-4
	c0.5-1.4,2.1-2,3.5-1.5c0.8,0.3,1.5,1.1,1.6,2l0,0c0,0.3,0.1,0.8,0.1,1.2L47,23c0.1,0.8,0.2,1.6,0.4,2.5c0.3,1.6,0.6,3.3,1.1,4.9
	c0.4,1.6,1,3.2,1.6,4.7c0.6,1.5,1.5,3,2.6,4.3l0,0c0.2,0.3,0.2,0.8-0.1,1c-0.3,0.2-0.6,0.2-0.9,0c-1.4-1.2-2.7-2.6-3.7-4.1
	c-1-1.5-1.9-3.1-2.8-4.7c-0.5-1.1-1-2.3-1.4-3.3c-0.3,0.6-0.6,1.3-0.9,1.9c-1.3,2.8-2.7,5.4-4.2,8.1c-0.7,1.4-1.5,2.7-2.4,4
	c-0.9,1.3-1.8,2.7-3,3.9c-0.6,0.7-1.3,1.3-2,1.9c-0.2,0.2-0.4,0.3-0.7,0.4l-0.5,0.3L29.8,49l0,0l-0.2,0.1h-0.1l-0.2,0.1
	c-0.1,0-0.3,0.1-0.4,0.1c-0.3,0.1-0.6,0.1-1,0.1c-0.7,0.1-1.4,0-2.1-0.3c-0.6-0.2-1.2-0.6-1.8-1c-0.8-0.7-1.5-1.6-2-2.6
	c-0.7-1.5-1.3-3.2-1.6-4.9c-0.3-1.5-0.6-3.1-0.7-4.7c-0.3-3.1-0.5-6.1-0.5-9.2c0-1.4,0-2.9,0-4.4c-0.5,1-1.1,2-1.6,3.1
	c-0.4,0.8-0.9,1.6-1.3,2.6l-1.4,2.5c-1.8,3.3-3.8,6.5-5.8,9.8c-1.3,2-2.6,4.2-3.9,6.2c9.1,13.9,27.7,17.7,41.6,8.6
	S64.2,27.3,55,13.4C49.6,5.2,40.2,0.1,30.1,0.1z"/>
</svg>
