<?xml version="1.0" encoding="utf-8"?>
<!-- Generator: Adobe Illustrator 24.1.2, SVG Export Plug-In . SVG Version: 6.00 Build 0)  -->
<svg version="1.1" id="Слой_1" xmlns="http://www.w3.org/2000/svg" xmlns:xlink="http://www.w3.org/1999/xlink" x="0px" y="0px"
	 viewBox="0 0 60 60" style="enable-background:new 0 0 60 60;" xml:space="preserve">
<style type="text/css">
	.st0{fill:#3E68B0;}
</style>
<path id="amatic" class="st0" d="M38.6,40.3H16.2l-3.3,9.3c-1.1,2-1.7,3.9-1.7,4.9c0,1,0.6,2,1.1,2.4c1.1,0.5,2.8,1,5.6,1.5v1.5H0
	v-1.5c2.2-0.5,3.9-1,4.5-2c1.7-1.5,3.3-3.9,5-8.3l19.6-48h1.7l19.6,48.5c1.1,3.9,2.8,6.3,3.9,7.8c1.7,1,3.3,1.5,5.6,2v1.5H37.5v-1.5
	c2.2-0.5,3.9-0.5,4.5-1.5c1.1-0.5,1.1-1.5,1.1-2.4c0-1-0.6-2.9-1.7-5.9L38.6,40.3z M36.9,37.3l-9.5-23.5l-9.5,23.5H36.9z"/>
</svg>
