<?xml version="1.0" encoding="utf-8"?>
<!-- Generator: Adobe Illustrator 24.1.2, SVG Export Plug-In . SVG Version: 6.00 Build 0)  -->
<svg version="1.1" id="Слой_1" xmlns="http://www.w3.org/2000/svg" xmlns:xlink="http://www.w3.org/1999/xlink" x="0px" y="0px"
	 viewBox="0 0 60 60" style="enable-background:new 0 0 60 60;" xml:space="preserve">
<style type="text/css">
	.st0{fill-rule:evenodd;clip-rule:evenodd;fill:#FEC82B;}
</style>
<path id="bgaming" class="st0" d="M8.3,0h43.4c0.9,0,1.6,0.8,1.6,1.7v56.6c0,1-0.7,1.7-1.6,1.7H8.3c-0.9,0-1.6-0.8-1.6-1.7V1.7
	C6.7,0.7,7.4,0,8.3,0z M17.5,50.2h13.8c4.1,0,7.3-1,9.4-3c2.1-2,3.1-4.9,3.1-8.9c0-2.2-0.5-4-1.4-5.6c-0.9-1.5-2.3-2.5-4.1-3.1
	c1.6-0.7,2.7-1.8,3.6-3.2c0.8-1.5,1.2-3.2,1.2-5.4c0-3.6-1.1-6.4-3.4-8.3c-2.3-1.9-5.7-2.8-10-2.8H17.5V50.2z M25.8,33h5.8
	c2.8,0,4.2,1.7,4.2,5.1c0,1.4-0.4,2.6-1.2,3.4c-0.8,0.8-1.9,1.2-3.4,1.2h-5.4C25.8,42.7,25.8,33,25.8,33z M25.8,26.7v-9.3h4
	c1.8,0,3.2,0.4,4,1.1c0.8,0.7,1.2,2,1.2,3.6c0,1.5-0.4,2.6-1.1,3.3c-0.8,0.8-2,1.1-3.8,1.2L25.8,26.7L25.8,26.7z"/>
</svg>
