<svg width="60" height="60" viewBox="0 0 60 60" fill="none" xmlns="http://www.w3.org/2000/svg">
<path d="M17.1319 35.817H17.8497C19.2855 35.817 19.5931 35.4068 20.0034 33.6634L22.9774 20.6391C23.08 20.1263 23.1825 19.7161 23.1825 19.4084C23.1825 18.6905 22.8749 18.4854 22.0544 18.4854H21.1315L21.234 17.9727H31.2843L31.1817 18.4854H30.5664C29.1307 18.4854 28.823 18.8956 28.4128 20.6391L25.4387 33.6634C25.3362 34.1762 25.2336 34.5864 25.2336 34.8941C25.2336 35.6119 25.6438 35.817 26.3617 35.817H27.1821L27.0796 36.2273H17.0293L17.1319 35.817Z" fill="white"/>
<path d="M40.104 35.5115C39.4887 37.8702 39.0785 39.4085 38.2581 40.5366C37.2325 41.9724 35.4891 42.7928 33.5406 42.7928C31.0793 42.7928 29.7461 41.6647 29.7461 39.7162C29.7461 38.4855 30.3614 37.6651 31.387 37.6651C32.4125 37.6651 33.0278 38.4855 33.0278 39.6136C33.0278 40.7417 32.4125 41.4596 31.5921 41.4596C31.387 41.4596 31.1818 41.4596 31.0793 41.357C31.2844 41.8698 32.0023 42.28 32.7202 42.28C34.7712 42.28 34.9763 40.229 36.3095 34.5885L36.7198 33.0502C35.5917 35.5115 34.4636 36.6396 32.9253 36.6396C31.1818 36.6396 29.9512 34.7936 29.9512 32.1272C29.9512 29.6659 30.7716 27.3071 32.3099 25.6663C33.438 24.4356 34.7712 23.8203 36.0019 23.8203C37.4376 23.8203 38.1555 24.8459 38.2581 26.7944L38.9759 24.128H42.9756L40.104 35.5115ZM33.9508 33.9732C33.8482 34.3834 33.7457 34.691 33.7457 34.8961C33.7457 35.3064 33.9508 35.5115 34.2585 35.5115C34.6687 35.5115 35.284 34.8961 35.8993 33.6655C37.13 31.3068 37.7453 28.948 37.7453 26.8969C37.7453 25.5637 37.3351 24.7433 36.8223 24.7433C36.3095 24.7433 35.8993 25.3586 35.5917 26.5893L33.9508 33.9732Z" fill="white"/>
<path d="M30.0543 16.3332C41.7455 16.3332 51.3855 19.7175 56.7183 24.7426C57.7439 25.6656 58.6669 27.1014 58.9745 28.0244C59.3847 29.1524 59.6924 30.0754 59.795 31.5112C59.795 31.4086 60.1026 29.9729 59.795 28.4346C59.5898 27.409 59.1796 26.2809 58.5643 25.4605C53.9494 18.9996 43.0787 15 30.0543 15C17.2351 15 6.36436 18.6919 1.74943 24.435C1.44177 24.7426 0.928999 25.4605 0.621337 26.0758C0.211121 26.9988 0.00601341 27.7167 0.00601341 27.7167C-0.0965405 27.8192 1.13411 25.8707 2.05709 24.8452C2.87752 23.9222 4.00562 23.2043 5.23626 22.2813C10.9793 18.3843 20.1066 16.3332 30.0543 16.3332Z" fill="white"/>
<path d="M30.3618 43.2024C22.3626 43.2024 14.671 41.5615 9.33824 38.8951C6.05651 37.2543 3.39011 35.1007 1.95435 32.8445C0.928815 31.2036 0.621153 29.6653 0.416045 27.9219C0.416045 28.127 0.210938 29.4602 0.210938 29.6653C0.210937 37.7671 13.7481 44.4331 30.3618 44.4331C43.5912 44.4331 54.7696 40.3309 58.8718 34.4853C59.3845 33.7674 59.5897 33.2547 59.8973 32.5368C59.8973 32.4342 59.9999 32.3317 59.9999 32.2291C59.9999 32.1266 59.9999 31.9215 59.9999 31.9215C59.9999 31.9215 59.8973 32.2291 59.5897 32.7419C58.4616 34.3828 57.6411 35.3058 56.0003 36.5364C50.8726 40.6386 41.2325 43.2024 30.3618 43.2024Z" fill="white"/>
</svg>
