<svg width="60" height="60" viewBox="0 0 60 60" fill="none" xmlns="http://www.w3.org/2000/svg">
<g clip-path="url(#clip0_736_1515)">
<circle cx="30" cy="30" r="30" fill="url(#paint0_linear_736_1515)"/>
<mask id="mask0_736_1515" style="mask-type:alpha" maskUnits="userSpaceOnUse" x="-40" y="-37" width="93" height="92">
<circle cx="6.52327" cy="9.12996" r="45.6522" fill="#0069B3"/>
</mask>
<g mask="url(#mask0_736_1515)">
<circle cx="30.0015" cy="29.9993" r="30" fill="url(#paint1_linear_736_1515)"/>
</g>
<mask id="mask1_736_1515" style="mask-type:alpha" maskUnits="userSpaceOnUse" x="-40" y="-34" width="93" height="89">
<path d="M51.2624 10.4352C51.2624 34.3988 31.2571 53.87 6.52327 53.87C-18.2106 53.87 -38.2159 34.3988 -38.2159 10.4352C-38.2159 -13.5284 -18.2106 -32.9996 6.52327 -32.9996C31.2571 -32.9996 51.2624 -13.5284 51.2624 10.4352Z" stroke="white" stroke-width="1.82609"/>
</mask>
<g mask="url(#mask1_736_1515)">
<circle cx="30.0015" cy="30.0007" r="30" fill="white"/>
</g>
<mask id="mask2_736_1515" style="mask-type:alpha" maskUnits="userSpaceOnUse" x="13" y="7" width="54" height="64">
<path d="M28.6959 57.3911L36.522 44.3477L13.0437 48.2607L35.2176 40.4346L13.0437 31.3042L36.522 37.8259L28.6959 23.4781L40.435 35.2172L43.0437 7.82593L45.6524 33.9129L57.3915 22.1738L46.9567 36.5216L66.522 33.9129L48.2611 40.4346L62.6089 46.9564L46.9567 44.3477L56.0872 57.3911L44.348 45.652L41.7394 70.4346L40.435 45.652L28.6959 57.3911Z" fill="#F2F7FA"/>
</mask>
<g mask="url(#mask2_736_1515)">
<circle cx="30.0007" cy="30" r="30" fill="white"/>
</g>
</g>
<defs>
<linearGradient id="paint0_linear_736_1515" x1="57.3913" y1="22.1739" x2="16.9565" y2="62.6087" gradientUnits="userSpaceOnUse">
<stop stop-color="#0096D6"/>
<stop offset="0.484187" stop-color="#005EA2"/>
<stop offset="1" stop-color="#008FD1"/>
</linearGradient>
<linearGradient id="paint1_linear_736_1515" x1="14.8546" y1="11.0646" x2="31.3058" y2="32.608" gradientUnits="userSpaceOnUse">
<stop stop-color="#FFDC00"/>
<stop offset="1" stop-color="#E84E0F"/>
</linearGradient>
<clipPath id="clip0_736_1515">
<rect width="60" height="60" fill="white"/>
</clipPath>
</defs>
</svg>
