<svg width="60" height="60" viewBox="0 0 60 60" fill="none" xmlns="http://www.w3.org/2000/svg">
<path d="M44.743 11.1631C40.5176 5.71704 34.4935 1.96563 27.7566 0.585066C21.0197 -0.795501 14.0131 0.285588 8 3.63346C13.0144 14.9279 16.8751 28.1381 41.4149 28.9846C44.6124 29.0877 47.8131 28.9984 51 28.7173C50.664 22.3785 48.4891 16.2766 44.743 11.1631Z" fill="white"/>
<path d="M40.1945 31.1009C25.3509 31.8361 18.3839 37.2716 14.0351 43.9547C11.714 47.9009 9.69644 52.0192 8 56.2738C25.9943 65.942 49.2472 55.7615 51 31.19C47.4032 30.9444 43.7949 30.9147 40.1945 31.1009Z" fill="white"/>
</svg>
