<svg width="75" height="24" viewBox="0 0 75 24" fill="none" xmlns="http://www.w3.org/2000/svg"><g clip-path="url(#clip0_1289_603)"><path d="M28.1065 0.466577L18.4167 23.5884H12.0922L7.32723 5.13776C7.03388 3.99993 6.78318 3.58585 5.90357 3.10267C4.4627 2.32369 2.09263 1.59299 0 1.13785L0.146458 0.46672H10.3217C11.6195 0.46672 12.7862 1.33231 13.0796 2.8245L15.5991 16.207L21.8224 0.46672L28.1065 0.466577ZM52.8794 16.0359C52.9074 9.93675 44.4399 9.60479 44.5008 6.87617C44.5173 6.04325 45.3067 5.1619 47.0355 4.9394C47.894 4.82518 50.2566 4.74147 52.9343 5.97082L53.9838 1.0699C52.5431 0.546961 50.6912 0.0461426 48.3895 0.0461426C42.4778 0.0461426 38.3161 3.19058 38.281 7.68971C38.2423 11.0167 41.2502 12.8734 43.5191 13.9815C45.8488 15.1152 46.6278 15.8392 46.6196 16.856C46.6044 18.4079 44.7607 19.0861 43.0411 19.1166C40.0332 19.1634 38.2885 18.3038 36.8952 17.6549L35.8123 22.7243C37.208 23.365 39.7919 23.9214 42.466 23.9542C48.7492 23.9539 52.8596 20.843 52.8794 16.0359ZM68.4908 23.5886H74.0241L69.1959 0.46672H64.0878C62.94 0.46672 61.9723 1.13612 61.5412 2.16161L52.5713 23.5886H58.8496L60.0959 20.1354H67.7704L68.4908 23.5886ZM61.8165 15.3963L64.9663 6.71438L66.7783 15.3963H61.8165ZM36.6542 0.466577L31.7053 23.5884H25.7228L30.6729 0.466577H36.6542Z" fill="#A182C3"/></g><defs><clipPath id="clip0_1289_603"><rect width="74.0241" height="24" fill="white"/></clipPath></defs></svg>