<svg width="40" height="24" viewBox="0 0 40 24" fill="none" xmlns="http://www.w3.org/2000/svg"><g clip-path="url(#clip0_1289_2108)"><path d="M25.051 2.5625H14.5507V21.4309H25.051V2.5625Z" fill="#744AA2"/><path d="M15.2181 11.9998C15.2165 10.1826 15.6283 8.38888 16.4224 6.75439C17.2165 5.11989 18.372 3.68746 19.8015 2.56556C18.0313 1.17413 15.9052 0.308819 13.6664 0.068533C11.4275 -0.171753 9.16624 0.222679 7.14098 1.20675C5.11572 2.19081 3.40819 3.72481 2.21357 5.6334C1.01895 7.54199 0.385437 9.74817 0.385437 11.9998C0.385437 14.2514 1.01895 16.4576 2.21357 18.3662C3.40819 20.2747 5.11572 21.8087 7.14098 22.7928C9.16624 23.7769 11.4275 24.1713 13.6664 23.931C15.9052 23.6907 18.0313 22.8254 19.8015 21.434C18.372 20.3121 17.2165 18.8797 16.4224 17.2452C15.6283 15.6107 15.2165 13.8169 15.2181 11.9998Z" fill="#5C3C80"/><path d="M39.2165 11.9998C39.2166 14.2513 38.5832 16.4575 37.3886 18.3661C36.1941 20.2747 34.4866 21.8087 32.4614 22.7928C30.4362 23.7769 28.1749 24.1713 25.9361 23.931C23.6973 23.6907 21.5713 22.8254 19.801 21.434C21.2293 20.3109 22.384 18.8783 23.1779 17.244C23.9719 15.6098 24.3844 13.8166 24.3844 11.9998C24.3844 10.1829 23.9719 8.38973 23.1779 6.75549C22.384 5.12125 21.2293 3.68859 19.801 2.56555C21.5713 1.17412 23.6973 0.308814 25.9361 0.0685309C28.1749 -0.171752 30.4362 0.222687 32.4614 1.20676C34.4866 2.19084 36.1941 3.72484 37.3886 5.63343C38.5832 7.54203 39.2166 9.7482 39.2165 11.9998Z" fill="#AB8BCE"/></g><defs><clipPath id="clip0_1289_2108"><rect width="39" height="24" fill="white" transform="translate(0.385437)"/></clipPath></defs></svg>