<svg width="124" height="24" viewBox="0 0 124 24" fill="none" xmlns="http://www.w3.org/2000/svg"><g clip-path="url(#clip0_1289_529)"><path d="M12.4274 12.1174L11.6544 15.0061C12.6064 15.2258 15.5357 16.1086 15.9751 14.4772C16.4267 12.7765 13.3591 12.3371 12.4274 12.1174Z" fill="#5C3C80"/><path d="M13.477 8.16406L12.7569 10.7964C13.5462 10.9754 15.9873 11.7281 16.386 10.2471C16.7847 8.7662 14.2663 8.35528 13.477 8.16406Z" fill="#5C3C80"/><path d="M16.6383 0.359477C9.7544 -1.2191 2.84204 2.66224 1.1292 9.08638C-0.583628 15.5105 3.59471 22.012 10.446 23.5987C17.2974 25.1854 24.2423 21.2918 25.9714 14.8758C27.6639 8.45577 23.4896 2.00315 16.6383 0.359477ZM19.177 10.2662C19.1386 10.7433 18.9414 11.1937 18.6169 11.5455C18.2924 11.8973 17.8593 12.1302 17.3869 12.2069C17.9532 12.3965 18.4215 12.8022 18.6898 13.3358C18.9581 13.8693 19.0045 14.4872 18.819 15.0548C18.7817 15.1688 18.734 15.2791 18.6766 15.3844C17.9198 17.3861 16.1175 17.5854 13.6764 17.1583L13.0946 19.339L11.7561 19.0176L12.3257 16.8653L11.2068 16.5968L10.6332 18.749L9.22549 18.4195L9.81542 16.2388L8.81458 15.9987L6.98376 15.5675L7.68354 14.0662C7.68354 14.0662 8.68438 14.3266 8.68438 14.3062C8.81076 14.3501 8.9492 14.3432 9.07061 14.2871C9.19201 14.2309 9.28691 14.1299 9.33534 14.0052L10.2548 10.5551H10.3931L10.2548 10.5063L10.9058 8.06519C10.9194 7.87735 10.8588 7.69167 10.7372 7.54793C10.6155 7.40419 10.4423 7.31384 10.2548 7.29625L9.25397 7.05621L9.6242 5.65665L11.5649 6.10418L12.4559 6.30354L13.0377 4.14317L14.4372 4.47272L13.8554 6.62495L14.9783 6.87719L15.5357 4.77378L16.9393 5.10333L16.3657 7.24336C18.1395 7.82515 19.4374 8.67546 19.177 10.2662Z" fill="#5C3C80"/><path d="M38.2379 7.24143C39.1611 7.22231 40.0778 7.39983 40.9271 7.7622C41.6333 8.08983 42.2616 8.56417 42.7701 9.15362C43.2707 9.75918 43.6443 10.4593 43.8686 11.2123C44.1086 12.0411 44.2265 12.9004 44.2185 13.7632C44.2353 15.1404 43.9579 16.5053 43.4048 17.7666C42.8846 18.9845 42.1329 20.0899 41.1916 21.0214C40.2166 21.9536 39.0716 22.6898 37.8188 23.1899C36.4857 23.737 35.0571 24.0136 33.6161 24.0036H32.6152C32.0599 23.9909 31.5058 23.9474 30.9553 23.8734C30.282 23.785 29.6139 23.6614 28.9536 23.5032C28.2664 23.3494 27.596 23.1286 26.9519 22.8441L32.5542 0.813223L37.5584 0.109375L35.5567 7.92087C35.9728 7.74468 36.4046 7.60846 36.8464 7.51402C37.2978 7.36849 37.7649 7.27699 38.2379 7.24143ZM34.027 20.2606C34.7712 20.265 35.5055 20.0891 36.167 19.748C36.8288 19.407 37.4165 18.9382 37.8961 18.3687C38.3931 17.7734 38.7827 17.096 39.0475 16.367C39.3242 15.6425 39.4622 14.8724 39.4543 14.0968C39.5089 13.2977 39.3323 12.4997 38.9458 11.7981C38.7284 11.5077 38.4383 11.2796 38.1048 11.1367C37.7713 10.9939 37.406 10.9414 37.0458 10.9844C36.6489 11.0002 36.2541 11.0506 35.8659 11.135C35.3776 11.2445 34.9235 11.4723 34.5437 11.7981L32.4158 20.0856L32.7535 20.1467C32.9818 20.1873 33.2133 20.2078 33.4452 20.2077L34.027 20.2606ZM49.4628 23.5601H44.6864L48.7549 7.58318H53.576L49.4628 23.5194V23.5601ZM51.7737 5.65879C51.129 5.65634 50.5009 5.45454 49.9754 5.08106C49.7038 4.88984 49.4861 4.63167 49.3435 4.33157C49.201 4.03148 49.1383 3.69964 49.1617 3.36823C49.1585 2.95292 49.2504 2.54237 49.4303 2.16803C49.6137 1.794 49.8616 1.45521 50.1626 1.16718C50.4845 0.901697 50.849 0.692609 51.2407 0.548772C51.6471 0.38215 52.0832 0.30046 52.5223 0.308731C53.1699 0.30006 53.8037 0.496596 54.3328 0.870182C54.5994 1.06528 54.8133 1.32358 54.9553 1.62185C55.0974 1.92011 55.1631 2.249 55.1465 2.57895C55.1411 2.99558 55.0424 3.40571 54.8576 3.77915C54.682 4.1568 54.4347 4.49672 54.1294 4.78C53.8196 5.05582 53.4645 5.27605 53.0797 5.43095C52.6614 5.58255 52.2184 5.65431 51.7737 5.64252V5.65879ZM57.7259 3.66116L62.7301 2.92884L61.5096 7.63201H66.8922L65.8913 11.3221H60.6023L59.1824 16.9082C59.0606 17.3311 58.9869 17.7665 58.9627 18.206C58.9352 18.5475 58.9896 18.8906 59.1214 19.2068C59.2561 19.5166 59.5033 19.7638 59.813 19.8985C60.2702 20.0812 60.7615 20.1631 61.2533 20.1385C61.7696 20.1509 62.2859 20.1142 62.7952 20.0287C63.2932 19.9357 63.7839 19.8079 64.264 19.6462L64.6261 23.1085C63.9344 23.3411 63.2293 23.5313 62.5145 23.6781C61.6325 23.8575 60.7332 23.938 59.8334 23.9182C58.6453 23.9798 57.4587 23.7712 56.363 23.3079C55.6056 22.9562 54.9912 22.3561 54.6216 21.6073C54.2547 20.8324 54.0909 19.977 54.1456 19.1214C54.203 18.1283 54.357 17.1431 54.6054 16.1799L57.7747 3.61234L57.7259 3.66116ZM66.6766 17.2052C66.6725 15.8778 66.9167 14.5614 67.3967 13.3238C67.8436 12.1397 68.5243 11.0576 69.3984 10.1423C70.3155 9.21487 71.4118 8.48397 72.6206 7.9941C73.9607 7.44654 75.3961 7.16998 76.8437 7.1804C77.7172 7.1733 78.5888 7.2606 79.4435 7.44079C80.1598 7.60088 80.8578 7.834 81.5265 8.1365L79.8747 11.6598C79.4353 11.4889 78.9837 11.3506 78.5362 11.2204C77.981 11.077 77.4089 11.01 76.8356 11.0211C76.127 10.9875 75.4196 11.1089 74.7626 11.3766C74.1057 11.6443 73.5149 12.0519 73.0315 12.5711C72.0465 13.7222 71.5424 15.2082 71.6239 16.721C71.5841 17.6075 71.8403 18.482 72.3521 19.2068C72.6844 19.5588 73.0943 19.8282 73.5493 19.9935C74.0042 20.1588 74.4915 20.2154 74.9722 20.1589C75.5831 20.1464 76.1911 20.0714 76.7868 19.9351C77.3171 19.825 77.838 19.6741 78.345 19.4835L78.7071 23.0882C78.0517 23.323 77.3834 23.52 76.7054 23.6781C75.8444 23.8621 74.9656 23.9495 74.0853 23.9385C72.926 23.9629 71.7719 23.7754 70.68 23.3852C69.8164 23.0679 69.0321 22.5668 68.3813 21.9165C67.7807 21.3127 67.3293 20.5772 67.0631 19.7683C66.7922 18.9242 66.6549 18.0429 66.6562 17.1563L66.6766 17.2052ZM87.967 23.9995C86.9462 24.0194 85.9302 23.8539 84.9685 23.5113C84.1776 23.2251 83.4644 22.7584 82.8854 22.1484C82.3348 21.535 81.9189 20.8129 81.6649 20.0287C81.3778 19.1744 81.2402 18.2771 81.258 17.376C81.2631 16.1395 81.4763 14.9127 81.8886 13.7469C82.3134 12.5504 82.9624 11.4457 83.8008 10.4922C84.6347 9.50829 85.6552 8.69937 86.8034 8.11209C88.0429 7.48635 89.4143 7.16686 90.8027 7.1804C91.8248 7.16089 92.842 7.32629 93.8052 7.66862C94.6018 7.96005 95.3232 8.4257 95.9168 9.03156C96.4664 9.6338 96.8885 10.341 97.1577 11.1106C97.4429 11.9653 97.5804 12.8623 97.5645 13.7632C97.5557 14.999 97.3496 16.2255 96.9542 17.3964C96.5525 18.5844 95.9346 19.6879 95.1316 20.6512C94.3107 21.6467 93.289 22.4578 92.1331 23.0312C90.8417 23.6743 89.4134 23.994 87.971 23.9629L87.967 23.9995ZM90.3674 10.9804C89.6947 10.9683 89.0359 11.1722 88.4877 11.5622C87.951 11.9584 87.4941 12.4526 87.1411 13.0187C86.7709 13.6137 86.4964 14.263 86.3274 14.9431C86.1487 15.5942 86.0543 16.2656 86.0466 16.9407C86.0056 17.761 86.1854 18.5774 86.5674 19.3045C86.7737 19.6038 87.0577 19.8412 87.389 19.9911C87.7202 20.1409 88.086 20.1975 88.447 20.1548C89.1172 20.1675 89.7736 19.9634 90.3185 19.573C90.8648 19.1858 91.3281 18.6933 91.6815 18.1246C92.0463 17.5269 92.3206 16.8784 92.4952 16.2002C92.6699 15.5486 92.7601 14.8772 92.7637 14.2026C92.8105 13.3818 92.6303 12.564 92.2429 11.8388C92.0326 11.5478 91.7479 11.3187 91.4187 11.1756C91.0894 11.0324 90.7277 10.9804 90.3714 11.0251L90.3674 10.9804ZM102.805 23.5276H97.9836L101.983 7.59132H106.816L102.805 23.5276ZM105.136 5.65065C104.489 5.65739 103.855 5.46103 103.325 5.0892C103.054 4.89798 102.836 4.6398 102.694 4.33971C102.551 4.03961 102.488 3.70778 102.512 3.37637C102.509 2.96105 102.6 2.55051 102.78 2.17617C102.956 1.79752 103.205 1.45738 103.513 1.17532C103.799 0.901815 104.131 0.680174 104.493 0.520292C104.907 0.36724 105.346 0.295407 105.787 0.308731C106.435 0.30006 107.068 0.496596 107.597 0.870182C107.869 1.06076 108.086 1.31823 108.229 1.61762C108.371 1.91701 108.434 2.24815 108.411 2.57895C108.416 2.9931 108.328 3.40314 108.155 3.77915C107.972 4.1538 107.724 4.49276 107.422 4.78C106.784 5.35784 105.952 5.67571 105.091 5.671L105.136 5.65065ZM110.34 8.31958L111.54 8.01038C112.629 7.69566 113.744 7.48184 114.872 7.37162C115.64 7.29425 116.411 7.25758 117.183 7.26177C119.716 7.26177 121.46 7.95206 122.415 9.33263C123.37 10.7132 123.539 12.5901 122.923 14.9634L120.714 23.5683H115.885L118.029 15.1424C118.159 14.6135 118.257 14.1416 118.338 13.6127C118.42 13.1825 118.42 12.7409 118.338 12.3108C118.257 11.9396 118.041 11.6119 117.732 11.3913C117.3 11.1268 116.797 11.0031 116.292 11.0373C115.652 11.0412 115.013 11.1025 114.384 11.2204L111.239 23.5561H106.397L110.319 8.34806L110.34 8.31958Z" fill="#AA8ACE"/></g><defs><clipPath id="clip0_1289_529"><rect width="122.531" height="24" fill="white" transform="translate(0.746765)"/></clipPath></defs></svg>