<svg width="127" height="24" viewBox="0 0 127 24" fill="none" xmlns="http://www.w3.org/2000/svg"><g clip-path="url(#clip0_1289_2161)"><path d="M34.3537 14.5705C34.3518 14.6823 34.3057 14.7889 34.2255 14.8669C34.1453 14.9449 34.0375 14.988 33.9256 14.9867H26.0408C26.243 16.9371 27.7058 18.721 29.7751 18.721C31.1903 18.721 32.2368 18.1858 33.0217 17.056C33.0583 16.9967 33.1088 16.9472 33.169 16.9119C33.2291 16.8767 33.297 16.8567 33.3666 16.8538C33.4186 16.8524 33.4703 16.8615 33.5185 16.8807C33.5668 16.8999 33.6107 16.9288 33.6474 16.9655C33.6842 17.0022 33.713 17.0461 33.7322 17.0944C33.7514 17.1427 33.7606 17.1944 33.7591 17.2463C33.7594 17.318 33.7387 17.3883 33.6996 17.4485C32.9028 18.828 31.3211 19.5059 29.7751 19.5059C27.123 19.5059 25.2202 17.1274 25.2202 14.5943C25.2202 12.0611 27.1111 9.68262 29.7751 9.68262C32.439 9.68262 34.3418 12.0373 34.3537 14.5705ZM33.5093 14.2018C33.3428 12.2514 31.8444 10.4675 29.7751 10.4675C27.7058 10.4675 26.243 12.2514 26.0408 14.2018H33.5093Z" fill="#AA8ACE"/><path d="M43.9391 9.87289C44.0423 9.87588 44.1404 9.91819 44.2133 9.99115C44.2863 10.0641 44.3286 10.1622 44.3316 10.2653C44.3331 10.3173 44.3239 10.369 44.3047 10.4173C44.2855 10.4655 44.2567 10.5094 44.2199 10.5461C44.1832 10.5829 44.1393 10.6117 44.0911 10.6309C44.0428 10.6501 43.9911 10.6593 43.9391 10.6578H41.8223V18.9707C41.8213 19.0745 41.7797 19.1738 41.7063 19.2472C41.6329 19.3206 41.5336 19.3622 41.4298 19.3632C41.3267 19.3602 41.2286 19.3179 41.1556 19.2449C41.0827 19.1719 41.0403 19.0738 41.0374 18.9707V10.6578H39.0037C38.9518 10.6593 38.9001 10.6501 38.8518 10.6309C38.8035 10.6117 38.7597 10.5829 38.7229 10.5461C38.6862 10.5094 38.6573 10.4655 38.6381 10.4173C38.6189 10.369 38.6098 10.3173 38.6113 10.2653C38.6122 10.1615 38.6538 10.0623 38.7272 9.98886C38.8006 9.91546 38.8999 9.87382 39.0037 9.87289H41.0374V6.84028C41.0376 6.73979 41.0736 6.64267 41.139 6.56637C41.2044 6.49008 41.2949 6.43961 41.3941 6.42404C41.4496 6.41667 41.5061 6.42137 41.5596 6.43781C41.6131 6.45425 41.6624 6.48206 41.7042 6.51932C41.746 6.55658 41.7792 6.60242 41.8016 6.65371C41.8241 6.705 41.8352 6.76052 41.8342 6.81649V9.87289H43.9391Z" fill="#AA8ACE"/><path d="M56.8426 13.8926V18.9231C56.8396 19.0263 56.7973 19.1244 56.7243 19.1973C56.6514 19.2703 56.5533 19.3126 56.4501 19.3156C56.3982 19.3171 56.3465 19.3079 56.2982 19.2887C56.2499 19.2695 56.2061 19.2407 56.1693 19.2039C56.1326 19.1672 56.1037 19.1233 56.0845 19.0751C56.0653 19.0268 56.0562 18.9751 56.0577 18.9231V13.8926C56.0577 12.1919 55.0944 10.5032 53.2035 10.5032C50.7774 10.5032 49.7308 12.6201 49.8735 14.7964C49.8735 14.8559 49.8973 15.1056 49.8973 15.1413V18.9112C49.8971 19.0117 49.8611 19.1089 49.7957 19.1851C49.7303 19.2614 49.6398 19.3119 49.5405 19.3275C49.4851 19.3349 49.4286 19.3302 49.3751 19.3137C49.3216 19.2973 49.2723 19.2695 49.2305 19.2322C49.1887 19.1949 49.1555 19.1491 49.1331 19.0978C49.1106 19.0465 49.0995 18.991 49.1005 18.935V2.39245C49.1015 2.28866 49.1431 2.18938 49.2165 2.11598C49.2899 2.04258 49.3892 2.00093 49.493 2C49.5961 2.00299 49.6942 2.0453 49.7672 2.11826C49.8401 2.19122 49.8824 2.28932 49.8854 2.39245V11.74C50.5633 10.527 51.7764 9.70639 53.1916 9.70639C55.5225 9.70639 56.8426 11.74 56.8426 13.8926Z" fill="#AA8ACE"/><path d="M71.0066 14.5705C71.0048 14.6823 70.9587 14.7889 70.8784 14.8669C70.7982 14.9449 70.6904 14.988 70.5785 14.9867H62.6937C62.8959 16.9371 64.3587 18.721 66.428 18.721C67.8432 18.721 68.8898 18.1858 69.6747 17.056C69.7112 16.9967 69.7618 16.9472 69.8219 16.9119C69.882 16.8767 69.9499 16.8567 70.0196 16.8538C70.0715 16.8524 70.1232 16.8615 70.1715 16.8807C70.2198 16.8999 70.2636 16.9288 70.3004 16.9655C70.3371 17.0022 70.3659 17.0461 70.3851 17.0944C70.4043 17.1427 70.4135 17.1944 70.412 17.2463C70.4123 17.318 70.3916 17.3883 70.3526 17.4485C69.5557 18.828 67.974 19.5059 66.428 19.5059C63.776 19.5059 61.8731 17.1274 61.8731 14.5943C61.8731 12.0611 63.7641 9.68262 66.428 9.68262C69.0682 9.68262 70.9948 12.0373 71.0066 14.5705ZM70.1504 14.2018C69.9839 12.2514 68.4854 10.4675 66.4161 10.4675C64.3468 10.4675 62.884 12.2514 62.6818 14.2018H70.1504Z" fill="#AA8ACE"/><path d="M80.6991 10.2415C80.7066 10.3471 80.6721 10.4514 80.603 10.5316C80.534 10.6118 80.436 10.6615 80.3304 10.6697C78.0114 11.0146 76.9648 12.9055 76.9648 15.1056V18.8755C76.9646 18.976 76.9286 19.0732 76.8632 19.1495C76.7978 19.2257 76.7073 19.2762 76.6081 19.2918C76.5526 19.2992 76.4961 19.2945 76.4426 19.278C76.3891 19.2616 76.3398 19.2338 76.298 19.1965C76.2562 19.1592 76.223 19.1134 76.2006 19.0621C76.1781 19.0108 76.167 18.9553 76.168 18.8993V10.301C76.1682 10.2005 76.2043 10.1034 76.2697 10.0271C76.3351 9.95079 76.4255 9.90033 76.5248 9.88476C76.5803 9.87739 76.6367 9.88208 76.6902 9.89853C76.7438 9.91497 76.7931 9.94277 76.8349 9.98003C76.8766 10.0173 76.9099 10.0631 76.9323 10.1144C76.9547 10.1657 76.9658 10.2212 76.9648 10.2772V12.0254C77.6189 10.9194 78.9152 9.87286 80.271 9.87286C80.4731 9.87286 80.6991 10.0156 80.6991 10.2415Z" fill="#AA8ACE"/><path d="M93.662 14.5705C93.6601 14.6823 93.614 14.7889 93.5338 14.8669C93.4536 14.9449 93.3458 14.988 93.2339 14.9867H85.3491C85.5513 16.9371 87.0141 18.721 89.0834 18.721C90.4986 18.721 91.5451 18.1858 92.33 17.056C92.3666 16.9967 92.4171 16.9472 92.4773 16.9119C92.5374 16.8767 92.6053 16.8567 92.6749 16.8538C92.7269 16.8524 92.7786 16.8615 92.8268 16.8807C92.8751 16.8999 92.919 16.9288 92.9557 16.9655C92.9925 17.0022 93.0213 17.0461 93.0405 17.0944C93.0597 17.1427 93.0689 17.1944 93.0674 17.2463C93.0677 17.318 93.047 17.3883 93.0079 17.4485C92.2111 18.828 90.6294 19.5059 89.0834 19.5059C86.4313 19.5059 84.5285 17.1274 84.5285 14.5943C84.5285 12.0611 86.4194 9.68262 89.0834 9.68262C91.7473 9.68262 93.6501 12.0373 93.662 14.5705ZM92.8176 14.2018C92.6511 12.2514 91.1527 10.4675 89.0834 10.4675C87.0141 10.4675 85.5513 12.2514 85.3491 14.2018H92.8176Z" fill="#AA8ACE"/><path d="M106.411 10.3368V18.9708C106.408 19.0739 106.366 19.172 106.293 19.245C106.22 19.318 106.122 19.3603 106.018 19.3633C105.966 19.3647 105.915 19.3556 105.866 19.3364C105.818 19.3172 105.774 19.2883 105.738 19.2516C105.701 19.2149 105.672 19.171 105.653 19.1227C105.634 19.0744 105.624 19.0227 105.626 18.9708V17.3296C104.972 18.6259 103.818 19.5654 102.344 19.5654C100.001 19.5654 98.7044 17.5318 98.7044 15.3792V10.3249C98.7054 10.2211 98.747 10.1218 98.8204 10.0484C98.8938 9.97501 98.9931 9.93337 99.0969 9.93244C99.2 9.93543 99.2981 9.97774 99.3711 10.0507C99.444 10.1237 99.4864 10.2218 99.4894 10.3249V15.3792C99.4894 17.0799 100.453 18.7686 102.344 18.7686C104.996 18.7686 105.626 16.2831 105.626 13.5359V10.313C105.627 10.2494 105.643 10.1869 105.673 10.1308C105.703 10.0746 105.746 10.0265 105.798 9.99042C105.851 9.95432 105.911 9.9313 105.974 9.92328C106.037 9.91526 106.101 9.92248 106.161 9.94433C106.236 9.97907 106.299 10.0345 106.343 10.104C106.388 10.1736 106.411 10.2544 106.411 10.3368Z" fill="#AA8ACE"/><path d="M126.378 13.8569V18.9113C126.375 19.0144 126.333 19.1125 126.26 19.1855C126.187 19.2584 126.089 19.3007 125.986 19.3037C125.934 19.3052 125.882 19.2961 125.834 19.2769C125.786 19.2577 125.742 19.2288 125.705 19.1921C125.668 19.1553 125.64 19.1115 125.62 19.0632C125.601 19.0149 125.592 18.9632 125.594 18.9113V13.8569C125.594 12.1563 124.63 10.4913 122.739 10.4913C120.361 10.4913 119.457 13.0363 119.457 15.0105V18.9113C119.454 19.0144 119.412 19.1125 119.339 19.1855C119.266 19.2584 119.168 19.3007 119.065 19.3037C119.013 19.3052 118.961 19.2961 118.913 19.2769C118.864 19.2577 118.82 19.2288 118.784 19.1921C118.747 19.1553 118.718 19.1115 118.699 19.0632C118.68 19.0149 118.671 18.9632 118.672 18.9113V13.8569C118.672 12.1563 117.709 10.4913 115.818 10.4913C113.416 10.4913 112.428 12.3823 112.512 14.9035C112.512 14.9629 112.536 15.07 112.512 15.1056V18.8994C112.512 18.9999 112.475 19.097 112.41 19.1733C112.345 19.2496 112.254 19.3001 112.155 19.3156C112.099 19.323 112.043 19.3183 111.99 19.3019C111.936 19.2854 111.887 19.2576 111.845 19.2203C111.803 19.1831 111.77 19.1372 111.747 19.086C111.725 19.0347 111.714 18.9791 111.715 18.9232V10.301C111.715 10.2006 111.751 10.1034 111.817 10.0271C111.882 9.95085 111.972 9.90038 112.072 9.88481C112.127 9.87744 112.184 9.88214 112.237 9.89858C112.291 9.91502 112.34 9.94283 112.382 9.98009C112.424 10.0173 112.457 10.0632 112.479 10.1145C112.502 10.1658 112.513 10.2213 112.512 10.2773V11.7163C113.19 10.5032 114.403 9.70642 115.818 9.70642C117.423 9.70642 118.672 10.7292 119.183 12.2158C119.838 10.7411 121.11 9.70642 122.739 9.70642C125.058 9.70642 126.378 11.7163 126.378 13.8569Z" fill="#AA8ACE"/><path opacity="0.6" d="M8.40713 8.87799L1.04571 12.2217L8.40713 16.5764L15.7774 12.2217L8.40713 8.87799Z" fill="#AA8ACE"/><path opacity="0.55" d="M1.04565 12.2217L8.40707 16.5765V0L1.04565 12.2217Z" fill="#AA8ACE"/><path opacity="0.8" d="M8.40711 0V16.5765L15.7774 12.2217L8.40711 0Z" fill="#AA8ACE"/><path opacity="0.55" d="M1.04571 13.623L8.40713 24V17.9689L1.04571 13.623Z" fill="#AA8ACE"/><path opacity="0.8" d="M8.40711 17.9689V24L15.7774 13.623L8.40711 17.9689Z" fill="#AA8ACE"/></g><defs><clipPath id="clip0_1289_2161"><rect width="126" height="24" fill="white" transform="translate(0.638672)"/></clipPath></defs></svg>