<svg width="153" height="24" viewBox="0 0 153 24" fill="none" xmlns="http://www.w3.org/2000/svg"><path d="M147.549 20.1072C148.402 19.4268 149.066 18.552 149.542 17.4828C150.028 16.4028 150.271 15.258 150.271 14.0484C150.271 12.8496 150.028 11.7102 149.542 10.6302C149.056 9.55019 148.391 8.67539 147.549 8.00579L148.958 6.43439C150.136 7.31999 151.043 8.42699 151.68 9.75539C152.328 11.073 152.652 12.504 152.652 14.0484C152.652 15.5928 152.328 17.0292 151.68 18.3576C151.043 19.6752 150.136 20.7768 148.958 21.6624L147.549 20.1072Z" fill="#AB8BCE"/><path d="M146.903 7.85999V10.1766H143.436V19.2H140.779V10.1766H137.329V7.85999H146.903Z" fill="#AB8BCE"/><path d="M130.863 7.85999C132.03 7.85999 133.05 8.09219 133.925 8.55659C134.811 9.02099 135.491 9.68519 135.966 10.5492C136.452 11.4024 136.695 12.396 136.695 13.53C136.695 14.664 136.452 15.663 135.966 16.527C135.491 17.3802 134.811 18.039 133.925 18.5034C133.05 18.9678 132.03 19.2 130.863 19.2H126.214V7.85999H130.863ZM130.863 16.8834C131.814 16.8834 132.581 16.581 133.164 15.9762C133.747 15.3714 134.039 14.556 134.039 13.53C134.039 12.8496 133.904 12.261 133.634 11.7642C133.374 11.2566 133.002 10.8678 132.516 10.5978C132.041 10.317 131.49 10.1766 130.863 10.1766H128.871V16.8834H130.863Z" fill="#AB8BCE"/><path d="M119.731 19.4592C118.802 19.4592 117.906 19.3188 117.042 19.038C116.189 18.7572 115.449 18.363 114.823 17.8554L116.2 15.9276C117.204 16.716 118.376 17.1102 119.715 17.1102C120.385 17.1102 120.914 16.9968 121.303 16.77C121.702 16.5432 121.902 16.2354 121.902 15.8466C121.902 15.4794 121.718 15.1932 121.351 14.988C120.984 14.7828 120.401 14.637 119.602 14.5506C118.057 14.3778 116.923 14.016 116.2 13.4652C115.487 12.9144 115.13 12.126 115.13 11.1C115.13 10.4088 115.325 9.79857 115.714 9.26937C116.102 8.74017 116.648 8.32977 117.35 8.03817C118.052 7.74657 118.862 7.60077 119.78 7.60077C120.568 7.60077 121.335 7.71417 122.08 7.94097C122.836 8.16777 123.5 8.48637 124.073 8.89677L122.825 10.7598C121.94 10.1442 120.962 9.83637 119.893 9.83637C119.234 9.83637 118.705 9.94437 118.306 10.1604C117.917 10.3764 117.722 10.668 117.722 11.0352C117.722 11.3916 117.89 11.667 118.225 11.8614C118.57 12.0558 119.143 12.2016 119.942 12.2988C121.475 12.4716 122.62 12.855 123.376 13.449C124.132 14.0322 124.51 14.8368 124.51 15.8628C124.51 16.5756 124.31 17.2074 123.911 17.7582C123.511 18.2982 122.95 18.7194 122.226 19.0218C121.502 19.3134 120.671 19.4592 119.731 19.4592Z" fill="#AB8BCE"/><path d="M108.106 19.443C106.475 19.443 105.206 18.9948 104.299 18.0984C103.402 17.1912 102.954 15.9276 102.954 14.3076V7.85999H105.611V14.3076C105.611 15.1716 105.827 15.852 106.259 16.3488C106.702 16.8456 107.317 17.094 108.106 17.094C108.872 17.094 109.477 16.8456 109.92 16.3488C110.363 15.852 110.584 15.1716 110.584 14.3076V7.85999H113.241V14.3076C113.241 15.9276 112.793 17.1912 111.896 18.0984C111 18.9948 109.736 19.443 108.106 19.443Z" fill="#AB8BCE"/><path d="M100.228 21.6624C99.051 20.7768 98.1384 19.6752 97.4904 18.3576C96.8424 17.0292 96.5184 15.5928 96.5184 14.0484C96.5184 12.504 96.8424 11.073 97.4904 9.75539C98.1384 8.42699 99.051 7.31999 100.228 6.43439L101.621 8.00579C100.779 8.67539 100.115 9.55019 99.6288 10.6302C99.1428 11.7102 98.8998 12.8496 98.8998 14.0484C98.8998 15.2472 99.1428 16.3866 99.6288 17.4666C100.115 18.5466 100.779 19.4268 101.621 20.1072L100.228 21.6624Z" fill="#AB8BCE"/><path d="M39.3373 6.68298V9.52134H42.0959V11.6511H39.3183V15.9694C39.3183 16.9231 39.8446 17.3886 40.6159 17.3886C41.0016 17.3886 41.4481 17.267 41.8128 17.0846L42.5025 19.1935C41.7938 19.4765 41.2049 19.5981 40.4545 19.619C38.2848 19.7007 36.8656 18.4639 36.8656 15.9694V11.6511H35V9.52134H36.8656V6.94705L39.3373 6.68298ZM86.8962 9.38836L87.0785 10.5435C87.8499 9.30666 88.8834 9.12428 89.8979 9.12428C90.9314 9.12428 91.9251 9.52894 92.4722 10.0761L91.357 12.2248C90.8497 11.7993 90.3843 11.5751 89.573 11.5751C88.2755 11.5751 87.0785 12.2647 87.0785 14.1095V19.3815H84.605V9.38456L86.8962 9.38836ZM80.8338 13.2203C80.6723 11.9227 79.6578 11.273 78.2386 11.273C76.9011 11.273 75.8049 11.9227 75.4401 13.2203H80.8338ZM75.4002 15.2684C75.5617 16.5052 76.637 17.3981 78.3811 17.3981C79.293 17.3981 80.4899 17.0523 81.0579 16.4653L82.6386 18.027C81.5842 19.1213 79.861 19.6494 78.3393 19.6494C74.8929 19.6494 72.843 17.5197 72.843 14.3166C72.843 11.2749 74.9119 9.08438 78.1569 9.08438C81.5025 9.08438 83.5923 11.1533 83.2067 15.2684H75.4002ZM64.4913 5.1897V10.7448C65.3842 9.58974 66.4785 9.24397 67.6146 9.24397C70.453 9.24397 71.7107 11.1704 71.7107 14.1114V19.3834H69.2371V14.1323C69.2371 12.3065 68.2834 11.5371 66.9649 11.5371C65.5039 11.5371 64.4913 12.7739 64.4913 14.2748V19.3853H62.0177V5.1916L64.4913 5.1897ZM57.9216 6.56899V9.40735H60.6802V11.5371H57.9026V15.8554C57.9026 16.8092 58.4308 17.2746 59.2002 17.2746C59.5859 17.2746 60.0324 17.153 60.3971 16.9706L61.0868 19.0795C60.3781 19.3625 59.7892 19.4841 59.0387 19.505C56.8691 19.5867 55.4499 18.348 55.4499 15.8554V11.5371H53.5843V9.40735H55.4499V6.83306L57.9216 6.56899ZM51.0879 13.2203C50.9264 11.9227 49.9119 11.273 48.4927 11.273C47.1552 11.273 46.059 11.9227 45.6942 13.2203H51.0879ZM45.6543 15.2684C45.8158 16.5052 46.8911 17.3981 48.6352 17.3981C49.5471 17.3981 50.744 17.0523 51.3121 16.4653L52.8927 18.027C51.8383 19.1213 50.1152 19.6494 48.5934 19.6494C45.1452 19.6494 43.0971 17.5197 43.0971 14.3166C43.0971 11.2749 45.1661 9.08438 48.4091 9.08438C51.7547 9.08438 53.8427 11.1533 53.4589 15.2684H45.6543Z" fill="#AB8BCE"/><g clip-path="url(#clip0_1293_33)"><path fill-rule="evenodd" clip-rule="evenodd" d="M6.05171 0.117874L1.0212 10.6845C1.00206 10.7238 0.995992 10.7682 1.00389 10.8112C1.01179 10.8542 1.03323 10.8935 1.06509 10.9234L14.6513 23.9423C14.6899 23.9793 14.7413 24 14.7948 24C14.8482 24 14.8996 23.9793 14.9382 23.9423L28.5244 10.9243C28.5563 10.8943 28.5777 10.855 28.5856 10.812C28.5935 10.769 28.5875 10.7246 28.5683 10.6853L23.5378 0.118687C23.5216 0.0831997 23.4955 0.0531376 23.4626 0.0320934C23.4297 0.0110491 23.3915 -8.70516e-05 23.3525 1.57299e-05H6.23866C6.19945 -0.000472091 6.16094 0.0103958 6.12777 0.0313085C6.09459 0.0522212 6.06818 0.0822852 6.05171 0.117874Z" fill="#5C3C80"/><path fill-rule="evenodd" clip-rule="evenodd" d="M16.5402 11.7696C16.4427 11.7769 15.9387 11.807 14.8146 11.807C13.9205 11.807 13.2857 11.7801 13.063 11.7696C9.60772 11.6176 7.02866 11.0161 7.02866 10.2959C7.02866 9.57578 9.60772 8.97511 13.063 8.82067V11.1705C13.289 11.1868 13.936 11.225 14.8301 11.225C15.903 11.225 16.4402 11.1803 16.537 11.1713V8.8223C19.9849 8.97592 22.5583 9.57741 22.5583 10.2959C22.5583 11.0145 19.9858 11.6159 16.537 11.7688L16.5402 11.7696ZM16.5402 8.57927V6.47652H21.3521V3.26996H8.25113V6.47652H13.0622V8.57846C9.15173 8.75809 6.21097 9.5327 6.21097 10.4609C6.21097 11.3892 9.15173 12.163 13.0622 12.3434V19.0817H16.5394V12.341C20.4409 12.1613 23.3768 11.3875 23.3768 10.4601C23.3768 9.5327 20.4434 8.7589 16.5394 8.57846L16.5402 8.57927Z" fill="black"/></g><defs><clipPath id="clip0_1293_33"><rect width="27.5894" height="24" fill="white" transform="translate(1)"/></clipPath></defs></svg>